<?xml version="1.0" encoding="UTF-8" standalone="no"?>
<!-- Created with Inkscape (http://www.inkscape.org/) -->

<svg
   xmlns:dc="http://purl.org/dc/elements/1.1/"
   xmlns:cc="http://creativecommons.org/ns#"
   xmlns:rdf="http://www.w3.org/1999/02/22-rdf-syntax-ns#"
   xmlns:svg="http://www.w3.org/2000/svg"
   xmlns="http://www.w3.org/2000/svg"
   xmlns:xlink="http://www.w3.org/1999/xlink"
   xmlns:sodipodi="http://sodipodi.sourceforge.net/DTD/sodipodi-0.dtd"
   xmlns:inkscape="http://www.inkscape.org/namespaces/inkscape"
   width="420.00806mm"
   height="279.88126mm"
   viewBox="0 0 420.00806 279.88126"
   version="1.1"
   id="svg12484"
   sodipodi:docname="Baltimare.svg"
   inkscape:version="0.92.3 (2405546, 2018-03-11)">
  <title
     id="title1063">Baltimare</title>
  <defs
     id="defs12478">
    <mask
       maskUnits="userSpaceOnUse"
       id="mask13209">
      <rect
         style="opacity:1;vector-effect:none;fill:#ffffff;fill-opacity:1;fill-rule:nonzero;stroke:none;stroke-width:22.24989891;stroke-linecap:butt;stroke-linejoin:miter;stroke-miterlimit:4;stroke-dasharray:44.49979742, 22.2498987;stroke-dashoffset:0;stroke-opacity:1;paint-order:markers stroke fill"
         id="rect13211"
         width="21.695833"
         height="13.758333"
         x="438.43253"
         y="376.69977" />
    </mask>
    <mask
       maskUnits="userSpaceOnUse"
       id="mask13614">
      <g
         id="g13620"
         transform="translate(0,-683.6833)">
        <rect
           y="458.08582"
           x="-2131.2993"
           height="279.88116"
           width="419.82166"
           id="rect13616"
           style="opacity:1;vector-effect:none;fill:#ffffff;fill-opacity:1;fill-rule:nonzero;stroke:none;stroke-width:3.47000003;stroke-linecap:butt;stroke-linejoin:miter;stroke-miterlimit:4;stroke-dasharray:6.93999993, 6.93999993;stroke-dashoffset:0;stroke-opacity:1;paint-order:markers stroke fill" />
        <circle
           r="94.504189"
           cy="598.11926"
           cx="-1921.4814"
           id="circle13618"
           style="opacity:1;vector-effect:none;fill:#000000;fill-opacity:1;fill-rule:nonzero;stroke:none;stroke-width:4.31617403;stroke-linecap:butt;stroke-linejoin:miter;stroke-miterlimit:4;stroke-dasharray:8.63234801, 8.63234801;stroke-dashoffset:0;stroke-opacity:1;paint-order:markers stroke fill" />
      </g>
    </mask>
  </defs>
  <sodipodi:namedview
     id="base"
     pagecolor="#aed7a7"
     bordercolor="#666666"
     borderopacity="1.0"
     inkscape:pageopacity="0"
     inkscape:pageshadow="2"
     inkscape:zoom="0.088388348"
     inkscape:cx="-626.04143"
     inkscape:cy="-376.4711"
     inkscape:document-units="mm"
     inkscape:current-layer="layer1"
     showgrid="false"
     inkscape:snap-center="false"
     showguides="true"
     inkscape:guide-bbox="true"
     inkscape:window-width="1366"
     inkscape:window-height="706"
     inkscape:window-x="0"
     inkscape:window-y="0"
     inkscape:window-maximized="1"
     inkscape:snap-smooth-nodes="false"
     inkscape:snap-midpoints="false"
     inkscape:object-nodes="true"
     inkscape:snap-intersection-paths="false"
     inkscape:snap-object-midpoints="false" />
  <metadata
     id="metadata12481">
    <rdf:RDF>
      <cc:Work
         rdf:about="">
        <dc:format>image/svg+xml</dc:format>
        <dc:type
           rdf:resource="http://purl.org/dc/dcmitype/StillImage" />
        <dc:title>Baltimare</dc:title>
        <dc:date>10-June-2020</dc:date>
        <dc:creator>
          <cc:Agent>
            <dc:title>IvanVodkin2012</dc:title>
          </cc:Agent>
        </dc:creator>
        <dc:description>Flags for the Equestria at War mod</dc:description>
      </cc:Work>
    </rdf:RDF>
  </metadata>
  <g
     inkscape:label="Layer 1"
     inkscape:groupmode="layer"
     id="layer1"
     transform="translate(3613.2886,514.15851)">
    <g
       id="g13560"
       transform="translate(-2381.8194,-316.76916)">
      <rect
         id="rect13436"
         style="fill:#000000;fill-opacity:1;stroke-width:0.64787304"
         y="112.49201"
         x="-2131.2993"
         height="279.88116"
         width="419.82169" />
      <g
         id="g13444"
         transform="translate(-560.91676,338.0895)"
         style="fill:#e01927;fill-opacity:1">
        <path
           inkscape:connector-curvature="0"
           id="path13438"
           d="m -1570.5685,-132.24187 v 11.66959 11.66959 h 420.0075 v -11.66959 -11.66959 z"
           style="opacity:1;vector-effect:none;fill:#e01927;fill-opacity:1;fill-rule:nonzero;stroke:none;stroke-width:0.20423655;stroke-linecap:butt;stroke-linejoin:miter;stroke-miterlimit:4;stroke-dasharray:none;stroke-dashoffset:0;stroke-opacity:1;paint-order:markers stroke fill" />
        <path
           inkscape:connector-curvature="0"
           id="path13440"
           d="m -1570.5682,-62.225173 v 11.669588 11.669588 h 420.0074 v -11.669588 -11.669588 z"
           style="opacity:1;vector-effect:none;fill:#e01927;fill-opacity:1;fill-rule:nonzero;stroke:none;stroke-width:0.20423655;stroke-linecap:butt;stroke-linejoin:miter;stroke-miterlimit:4;stroke-dasharray:none;stroke-dashoffset:0;stroke-opacity:1;paint-order:markers stroke fill" />
        <path
           inkscape:connector-curvature="0"
           id="path13442"
           d="m -1570.5682,-97.233354 v 11.669588 11.669004 h 420.0074 v -11.669004 -11.669588 z"
           style="opacity:1;vector-effect:none;fill:#e01927;fill-opacity:1;fill-rule:nonzero;stroke:none;stroke-width:0.20423655;stroke-linecap:butt;stroke-linejoin:miter;stroke-miterlimit:4;stroke-dasharray:none;stroke-dashoffset:0;stroke-opacity:1;paint-order:markers stroke fill" />
      </g>
      <path
         style="fill:#000000;fill-opacity:1;stroke:none;stroke-width:0.26458332px;stroke-linecap:butt;stroke-linejoin:miter;stroke-opacity:1"
         d="m -1781.4789,159.16981 -140.0024,186.71127 -140.0026,-186.71127 z"
         id="path13446"
         inkscape:connector-curvature="0"
         sodipodi:nodetypes="cccc" />
      <g
         transform="translate(-6.109375e-5,338.0895)"
         id="g13454">
        <path
           style="opacity:1;vector-effect:none;fill:#e01927;fill-opacity:1;fill-rule:nonzero;stroke:none;stroke-width:5.58169031;stroke-linecap:butt;stroke-linejoin:miter;stroke-miterlimit:4;stroke-dasharray:none;stroke-dashoffset:0;stroke-opacity:1;paint-order:markers stroke fill"
           d="m -1920.6448,-178.91984 c -13.7592,0 -26.1956,6.38242 -35.1045,16.66322 0,0 -10e-5,0 -10e-5,0 -0.1373,0.15817 -0.2734,0.31727 -0.4089,0.47725 -8.3936,9.92016 -13.5469,23.35237 -13.5469,38.14075 0,15.05182 3.1546,36.694375 10.6749,54.774151 2.8569,6.868358 -2.0525,3.674163 1.1366,13.689307 1.9861,6.237148 2.2354,5.775532 8.2289,3.938615 6.9097,-2.117695 5.1988,-7.701418 4.6561,-10.03407 -0.5583,-2.400208 -1.313,-4.790307 -2.3579,-7.593852 -5.5213,-14.812185 -7.8291,-32.790971 -7.8291,-45.220301 0,-24.73112 15.469,-44.77959 34.5509,-44.77959 19.0818,0 34.5507,20.04847 34.5507,44.77959 0,10.80929 -1.7466,25.814743 -5.833,39.285419 0,0.0059 0,0.01199 -0.013,0.01789 -0.035,0.119769 -0.073,0.239656 -0.1098,0.359188 0,0.006 0,0.01186 -0.013,0.01789 -0.1335,0.434049 -0.2684,0.867005 -0.4067,1.297541 0,7.8e-5 0,1.78e-4 0,2.57e-4 -0.1384,0.43033 -0.28,0.858167 -0.4232,1.284605 -5e-4,0.0015 -9e-4,0.0027 0,0.0045 -0.095,0.284125 -0.1913,0.568111 -0.2889,0.850366 -0.1083,0.313594 -0.2189,0.625473 -0.3301,0.936607 0.1111,-0.311097 0.2217,-0.623054 0.3301,-0.936607 0.099,-0.28228 0.1934,-0.566218 0.2889,-0.850366 -0.2055,0.611269 -0.4155,1.218731 -0.6314,1.821029 -0.019,0.05504 -0.039,0.110101 -0.059,0.165055 -0.1161,0.323747 -0.2345,0.64632 -0.354,0.967191 -1.0449,2.803544 -1.7996,5.193643 -2.3579,7.593852 -0.5427,2.33265 -2.2536,7.916374 4.6561,10.034068 5.9935,1.836918 6.2428,2.298534 8.2289,-3.938613 3.1891,-10.015146 -1.7203,-6.82095 1.1366,-13.689307 7.5203,-18.07978 10.6749,-39.722325 10.6749,-54.774145 0,-30.53087 -21.9649,-55.28122 -49.0601,-55.28122 z m 27.0644,109.119503 c -0.1135,0.31314 -0.2266,0.625422 -0.3424,0.935868 0.116,-0.310469 0.2295,-0.622696 0.3424,-0.935868 z"
           id="path13448"
           inkscape:connector-curvature="0" />
        <path
           inkscape:connector-curvature="0"
           id="path13450"
           d="m -1954.8555,-152.46875 c -1.7664,2.30477 -3.3007,4.78969 -4.5371,7.41786 1.5312,0.71484 3.0625,1.42969 4.5937,2.14453 1.3325,-2.80806 3.0349,-5.43827 5.0528,-7.80273 -1.3086,-1.06901 -2.6172,-2.13803 -3.9258,-3.20704 -0.3945,0.48246 -0.7891,0.96492 -1.1836,1.44738 z m -6.5976,12.45117 c -1.1206,3.30178 -1.9187,6.70751 -2.4601,10.15037 1.6667,0.27865 3.3333,0.55729 5,0.83594 0.4958,-3.18523 1.218,-6.33862 2.2615,-9.39082 -1.5872,-0.57943 -3.1745,-1.15885 -4.7617,-1.73828 z m -3.1817,16.96289 c -0.168,2.93777 -0.2162,5.88249 -0.1293,8.82412 1.6894,-0.0358 3.3789,-0.0716 5.0683,-0.10742 -0.089,-3.29538 -0.032,-6.59692 0.2407,-9.88288 -1.6849,-0.12956 -3.3698,-0.25912 -5.0547,-0.38868 -0.042,0.51829 -0.083,1.03657 -0.125,1.55486 z m 0.1172,13.9668 c 0.2843,3.45622 0.6389,6.90829 1.1436,10.339799 1.6693,-0.264323 3.3385,-0.528646 5.0078,-0.792969 -0.4526,-3.26081 -0.8107,-6.53306 -1.0789,-9.81446 -1.6908,0.0892 -3.3817,0.17842 -5.0725,0.26763 z m 1.9434,15.416015 c 0.5944,3.35103 1.2914,6.680194 2.0219,10.003906 1.6523,-0.354167 3.3047,-0.708333 4.957,-1.0625 -0.7271,-3.278747 -1.3937,-6.569285 -1.9863,-9.875041 -1.6642,0.311212 -3.3284,0.622423 -4.9926,0.933635 z"
           style="color:#000000;font-style:normal;font-variant:normal;font-weight:normal;font-stretch:normal;font-size:medium;line-height:normal;font-family:sans-serif;font-variant-ligatures:normal;font-variant-position:normal;font-variant-caps:normal;font-variant-numeric:normal;font-variant-alternates:normal;font-feature-settings:normal;text-indent:0;text-align:start;text-decoration:none;text-decoration-line:none;text-decoration-style:solid;text-decoration-color:#000000;letter-spacing:normal;word-spacing:normal;text-transform:none;writing-mode:lr-tb;direction:ltr;text-orientation:mixed;dominant-baseline:auto;baseline-shift:baseline;text-anchor:start;white-space:normal;shape-padding:0;clip-rule:nonzero;display:inline;overflow:visible;visibility:visible;opacity:1;isolation:auto;mix-blend-mode:normal;color-interpolation:sRGB;color-interpolation-filters:linearRGB;solid-color:#000000;solid-opacity:1;vector-effect:none;fill:#000000;fill-opacity:1;fill-rule:nonzero;stroke:none;stroke-width:5.06960201;stroke-linecap:butt;stroke-linejoin:miter;stroke-miterlimit:4;stroke-dasharray:10.13920349, 5.06960175;stroke-dashoffset:0;stroke-opacity:1;color-rendering:auto;image-rendering:auto;shape-rendering:auto;text-rendering:auto;enable-background:accumulate" />
        <path
           inkscape:connector-curvature="0"
           id="path13452"
           d="m -1891.5566,-150.70898 c 2.018,2.36433 3.7201,4.99487 5.0527,7.80273 1.5312,-0.71484 3.0625,-1.42969 4.5937,-2.14453 -1.5052,-3.18945 -3.431,-6.18032 -5.7188,-8.86513 -1.3092,1.06898 -2.6184,2.13795 -3.9276,3.20693 z m 6.8906,12.2871 c 1.0405,3.05339 1.7763,6.20399 2.2677,9.39064 1.6667,-0.27865 3.3333,-0.55729 5,-0.83594 -0.5465,-3.49264 -1.3529,-6.95015 -2.5092,-10.29295 -1.5862,0.57942 -3.1723,1.15883 -4.7585,1.73825 z m 2.8222,14.20118 c 0.2754,3.28594 0.3315,6.58756 0.2386,9.88295 1.6895,0.0358 3.3789,0.0716 5.0684,0.10742 0.096,-3.46069 0.034,-6.92788 -0.2485,-10.37881 -1.6862,0.12948 -3.3723,0.25896 -5.0585,0.38844 z m -0.012,14.96679 c -0.2664,3.2474 -0.6194,6.48592 -1.0699,9.712894 1.6693,0.264323 3.3385,0.528646 5.0078,0.792969 0.4972,-3.431993 0.8721,-6.881723 1.1354,-10.339803 -1.6544,-0.0195 -3.5732,-0.32462 -5.0733,-0.16606 z m -2.7617,19.470707 c -0.3582,1.684519 -0.7218,3.368474 -1.0821,5.052775 1.6524,0.354167 3.3047,0.708333 4.9571,1.0625 0.731,-3.323501 1.4275,-6.652645 2.02,-10.003906 -1.6608,-0.311198 -3.3216,-0.622396 -4.9824,-0.933594 -0.3042,1.607408 -0.6084,3.214817 -0.9126,4.822225 z"
           style="color:#000000;font-style:normal;font-variant:normal;font-weight:normal;font-stretch:normal;font-size:medium;line-height:normal;font-family:sans-serif;font-variant-ligatures:normal;font-variant-position:normal;font-variant-caps:normal;font-variant-numeric:normal;font-variant-alternates:normal;font-feature-settings:normal;text-indent:0;text-align:start;text-decoration:none;text-decoration-line:none;text-decoration-style:solid;text-decoration-color:#000000;letter-spacing:normal;word-spacing:normal;text-transform:none;writing-mode:lr-tb;direction:ltr;text-orientation:mixed;dominant-baseline:auto;baseline-shift:baseline;text-anchor:start;white-space:normal;shape-padding:0;clip-rule:nonzero;display:inline;overflow:visible;visibility:visible;opacity:1;isolation:auto;mix-blend-mode:normal;color-interpolation:sRGB;color-interpolation-filters:linearRGB;solid-color:#000000;solid-opacity:1;vector-effect:none;fill:#000000;fill-opacity:1;fill-rule:nonzero;stroke:none;stroke-width:5.06960201;stroke-linecap:butt;stroke-linejoin:miter;stroke-miterlimit:4;stroke-dasharray:10.13920349, 5.06960175;stroke-dashoffset:0;stroke-opacity:1;color-rendering:auto;image-rendering:auto;shape-rendering:auto;text-rendering:auto;enable-background:accumulate" />
      </g>
    </g>
    <g
       id="g13548"
       transform="translate(-1481.8037,21.320339)"
       mask="url(#mask13614)">
      <rect
         width="419.82169"
         height="279.88116"
         x="-2131.2993"
         y="-225.59749"
         style="fill:#000000;fill-opacity:1;stroke-width:0.64787298"
         id="rect13289" />
      <g
         style="fill:#e01927;fill-opacity:1"
         transform="translate(-560.91667)"
         id="g13340">
        <path
           style="opacity:1;vector-effect:none;fill:#e01927;fill-opacity:1;fill-rule:nonzero;stroke:none;stroke-width:0.20423655;stroke-linecap:butt;stroke-linejoin:miter;stroke-miterlimit:4;stroke-dasharray:none;stroke-dashoffset:0;stroke-opacity:1;paint-order:markers stroke fill"
           d="m -1570.5685,-132.24187 v 11.66959 11.66959 h 420.0075 v -11.66959 -11.66959 z"
           id="rect13297"
           inkscape:connector-curvature="0" />
        <path
           style="opacity:1;vector-effect:none;fill:#e01927;fill-opacity:1;fill-rule:nonzero;stroke:none;stroke-width:0.20423655;stroke-linecap:butt;stroke-linejoin:miter;stroke-miterlimit:4;stroke-dasharray:none;stroke-dashoffset:0;stroke-opacity:1;paint-order:markers stroke fill"
           d="m -1570.5682,-62.225173 v 11.669588 11.669588 h 420.0074 v -11.669588 -11.669588 z"
           id="rect13299"
           inkscape:connector-curvature="0" />
        <path
           style="opacity:1;vector-effect:none;fill:#e01927;fill-opacity:1;fill-rule:nonzero;stroke:none;stroke-width:0.20423655;stroke-linecap:butt;stroke-linejoin:miter;stroke-miterlimit:4;stroke-dasharray:none;stroke-dashoffset:0;stroke-opacity:1;paint-order:markers stroke fill"
           d="m -1570.5682,-97.233354 v 11.669588 11.669004 h 420.0074 v -11.669004 -11.669588 z"
           id="rect13305"
           inkscape:connector-curvature="0" />
      </g>
      <path
         sodipodi:nodetypes="cccc"
         inkscape:connector-curvature="0"
         id="path13333"
         d="M -1781.4789,-178.91969 -1921.4813,7.7915724 -2061.4839,-178.91969 Z"
         style="fill:#000000;fill-opacity:1;stroke:none;stroke-width:0.26458332px;stroke-linecap:butt;stroke-linejoin:miter;stroke-opacity:1" />
      <g
         id="g13534">
        <path
           inkscape:connector-curvature="0"
           id="path13357"
           d="m -1920.659,-178.91984 c 13.7592,0 26.1956,6.38242 35.1045,16.66322 0,0 10e-5,0 10e-5,0 0.1373,0.15817 0.2734,0.31727 0.4089,0.47725 8.3936,9.92016 13.5469,23.35237 13.5469,38.14075 0,15.05182 -3.1546,36.694375 -10.6749,54.774151 -2.8569,6.868358 2.0525,3.674163 -1.1366,13.689307 -1.9861,6.237148 -2.2354,5.775532 -8.2289,3.938615 -6.9097,-2.117695 -5.1988,-7.701418 -4.6561,-10.03407 0.5583,-2.400208 1.313,-4.790307 2.3579,-7.593852 5.5213,-14.812185 7.8291,-32.790971 7.8291,-45.220301 0,-24.73112 -15.469,-44.77959 -34.5509,-44.77959 -19.0818,0 -34.5507,20.04847 -34.5507,44.77959 0,10.80929 1.7466,25.814743 5.833,39.285419 0,0.0059 0,0.01199 0.013,0.01789 0.035,0.119769 0.073,0.239656 0.1098,0.359188 0,0.006 0,0.01186 0.013,0.01789 0.1335,0.434049 0.2684,0.867005 0.4067,1.297541 0,7.8e-5 0,1.78e-4 0,2.57e-4 0.1384,0.43033 0.28,0.858167 0.4232,1.284605 5e-4,0.0015 9e-4,0.0027 0,0.0045 0.095,0.284125 0.1913,0.568111 0.2889,0.850366 0.1083,0.313594 0.2189,0.625473 0.3301,0.936607 -0.1111,-0.311097 -0.2217,-0.623054 -0.3301,-0.936607 -0.099,-0.28228 -0.1934,-0.566218 -0.2889,-0.850366 0.2055,0.611269 0.4155,1.218731 0.6314,1.821029 0.019,0.05504 0.039,0.110101 0.059,0.165055 0.1161,0.323747 0.2345,0.64632 0.354,0.967191 1.0449,2.803544 1.7996,5.193643 2.3579,7.593852 0.5427,2.33265 2.2536,7.916374 -4.6561,10.034068 -5.9935,1.836918 -6.2428,2.298534 -8.2289,-3.938613 -3.1891,-10.015146 1.7203,-6.82095 -1.1366,-13.689307 -7.5203,-18.07978 -10.6749,-39.722325 -10.6749,-54.774145 0,-30.53087 21.9649,-55.28122 49.0601,-55.28122 z m -27.0644,109.119503 c 0.1135,0.31314 0.2266,0.625422 0.3424,0.935868 -0.116,-0.310469 -0.2295,-0.622696 -0.3424,-0.935868 z"
           style="opacity:1;vector-effect:none;fill:#e01927;fill-opacity:1;fill-rule:nonzero;stroke:none;stroke-width:5.58169031;stroke-linecap:butt;stroke-linejoin:miter;stroke-miterlimit:4;stroke-dasharray:none;stroke-dashoffset:0;stroke-opacity:1;paint-order:markers stroke fill" />
        <path
           style="color:#000000;font-style:normal;font-variant:normal;font-weight:normal;font-stretch:normal;font-size:medium;line-height:normal;font-family:sans-serif;font-variant-ligatures:normal;font-variant-position:normal;font-variant-caps:normal;font-variant-numeric:normal;font-variant-alternates:normal;font-feature-settings:normal;text-indent:0;text-align:start;text-decoration:none;text-decoration-line:none;text-decoration-style:solid;text-decoration-color:#000000;letter-spacing:normal;word-spacing:normal;text-transform:none;writing-mode:lr-tb;direction:ltr;text-orientation:mixed;dominant-baseline:auto;baseline-shift:baseline;text-anchor:start;white-space:normal;shape-padding:0;clip-rule:nonzero;display:inline;overflow:visible;visibility:visible;opacity:1;isolation:auto;mix-blend-mode:normal;color-interpolation:sRGB;color-interpolation-filters:linearRGB;solid-color:#000000;solid-opacity:1;vector-effect:none;fill:#000000;fill-opacity:1;fill-rule:nonzero;stroke:none;stroke-width:4.26999998;stroke-linecap:butt;stroke-linejoin:miter;stroke-miterlimit:4;stroke-dasharray:8.54, 4.27;stroke-dashoffset:0;stroke-opacity:1;color-rendering:auto;image-rendering:auto;shape-rendering:auto;text-rendering:auto;enable-background:accumulate"
           d="m -1960.2773,-141.48242 c -0.7314,1.97989 -1.4098,3.97824 -1.9782,6.01171 1.3633,0.40755 2.7265,0.8151 4.0898,1.22265 0.7591,-2.67245 1.6643,-5.30327 2.7542,-7.85939 -1.3184,-0.53711 -2.6367,-1.07422 -3.9551,-1.61133 -0.3036,0.74545 -0.6071,1.49091 -0.9107,2.23636 z m -3.4961,12.86523 c -0.3112,2.05167 -0.5696,4.10887 -0.7117,6.17969 1.418,0.12305 2.8359,0.24609 4.2539,0.36914 0.2036,-2.76763 0.5623,-5.52402 1.125,-8.24219 -1.3984,-0.26497 -2.7969,-0.52995 -4.1953,-0.79492 -0.1573,0.82943 -0.3146,1.65885 -0.4719,2.48828 z m -0.9082,10.64258 c -0.013,2.90178 0.064,5.80518 0.3042,8.69736 1.4186,-0.11979 2.8373,-0.23959 4.2559,-0.35938 -0.2399,-2.78068 -0.3062,-5.57313 -0.2993,-8.36343 -1.4203,0.008 -2.8405,0.017 -4.2608,0.0255 z m 0.7363,13.01758 c 0.3167,2.86815 0.7325,5.725164 1.2327,8.566297 1.4024,-0.244792 2.8047,-0.489583 4.2071,-0.734375 -0.4826,-2.765333 -0.8945,-5.543982 -1.2052,-8.334002 -1.4115,0.16736 -2.8231,0.33472 -4.2346,0.50208 z m 2.0156,12.814452 c 0.5327,2.810801 1.136,5.604947 1.7539,8.398435 1.3906,-0.303385 2.7813,-0.606771 4.1719,-0.910156 -0.6052,-2.76764 -1.2236,-5.531796 -1.7463,-8.316443 -1.3932,0.276055 -2.7863,0.552109 -4.1795,0.828164 z"
           id="path13374"
           inkscape:connector-curvature="0" />
        <path
           inkscape:connector-curvature="0"
           id="path13529"
           d="m -1881.0265,-141.48242 c 0.7314,1.97989 1.4098,3.97824 1.9782,6.01171 -1.3633,0.40755 -2.7265,0.8151 -4.0898,1.22265 -0.7591,-2.67245 -1.6643,-5.30327 -2.7542,-7.85939 1.3184,-0.53711 2.6367,-1.07422 3.9551,-1.61133 0.3036,0.74545 0.6071,1.49091 0.9107,2.23636 z m 3.4961,12.86523 c 0.3112,2.05167 0.5696,4.10887 0.7117,6.17969 -1.418,0.12305 -2.8359,0.24609 -4.2539,0.36914 -0.2036,-2.76763 -0.5623,-5.52402 -1.125,-8.24219 1.3984,-0.26497 2.7969,-0.52995 4.1953,-0.79492 0.1573,0.82943 0.3146,1.65885 0.4719,2.48828 z m 0.9082,10.64258 c 0.013,2.90178 -0.064,5.80518 -0.3042,8.69736 -1.4186,-0.11979 -2.8373,-0.23959 -4.2559,-0.35938 0.2399,-2.78068 0.3062,-5.57313 0.2993,-8.36343 1.4203,0.008 2.8405,0.017 4.2608,0.0255 z m -0.7363,13.01758 c -0.3167,2.86815 -0.7325,5.725164 -1.2327,8.566297 -1.4024,-0.244792 -2.8047,-0.489583 -4.2071,-0.734375 0.4826,-2.765333 0.8945,-5.543982 1.2052,-8.334002 1.4115,0.16736 2.8231,0.33472 4.2346,0.50208 z m -2.0156,12.814452 c -0.5327,2.810801 -1.136,5.604947 -1.7539,8.398435 -1.3906,-0.303385 -2.7813,-0.606771 -4.1719,-0.910156 0.6052,-2.76764 1.2236,-5.531796 1.7463,-8.316443 1.3932,0.276055 2.7863,0.552109 4.1795,0.828164 z"
           style="color:#000000;font-style:normal;font-variant:normal;font-weight:normal;font-stretch:normal;font-size:medium;line-height:normal;font-family:sans-serif;font-variant-ligatures:normal;font-variant-position:normal;font-variant-caps:normal;font-variant-numeric:normal;font-variant-alternates:normal;font-feature-settings:normal;text-indent:0;text-align:start;text-decoration:none;text-decoration-line:none;text-decoration-style:solid;text-decoration-color:#000000;letter-spacing:normal;word-spacing:normal;text-transform:none;writing-mode:lr-tb;direction:ltr;text-orientation:mixed;dominant-baseline:auto;baseline-shift:baseline;text-anchor:start;white-space:normal;shape-padding:0;clip-rule:nonzero;display:inline;overflow:visible;visibility:visible;opacity:1;isolation:auto;mix-blend-mode:normal;color-interpolation:sRGB;color-interpolation-filters:linearRGB;solid-color:#000000;solid-opacity:1;vector-effect:none;fill:#000000;fill-opacity:1;fill-rule:nonzero;stroke:none;stroke-width:4.26999998;stroke-linecap:butt;stroke-linejoin:miter;stroke-miterlimit:4;stroke-dasharray:8.54, 4.27;stroke-dashoffset:0;stroke-opacity:1;color-rendering:auto;image-rendering:auto;shape-rendering:auto;text-rendering:auto;enable-background:accumulate" />
      </g>
    </g>
    <g
       id="g13699"
       transform="translate(-2422.8781,-662.36299)">
      <rect
         id="rect13644"
         style="fill:#000000;fill-opacity:1;stroke-width:0.64787298"
         y="458.08585"
         x="-1640.2327"
         height="279.88116"
         width="419.82169" />
      <g
         id="g13652"
         transform="translate(-69.85,683.68333)"
         style="fill:#3f9eb5;fill-opacity:1">
        <path
           inkscape:connector-curvature="0"
           id="path13646"
           d="m -1570.5685,-132.24187 v 11.66959 11.66959 h 420.0075 v -11.66959 -11.66959 z"
           style="opacity:1;vector-effect:none;fill:#3f9eb5;fill-opacity:1;fill-rule:nonzero;stroke:none;stroke-width:0.20423655;stroke-linecap:butt;stroke-linejoin:miter;stroke-miterlimit:4;stroke-dasharray:none;stroke-dashoffset:0;stroke-opacity:1;paint-order:markers stroke fill" />
        <path
           inkscape:connector-curvature="0"
           id="path13648"
           d="m -1570.5682,-62.225173 v 11.669588 11.669588 h 420.0074 v -11.669588 -11.669588 z"
           style="opacity:1;vector-effect:none;fill:#3f9eb5;fill-opacity:1;fill-rule:nonzero;stroke:none;stroke-width:0.20423655;stroke-linecap:butt;stroke-linejoin:miter;stroke-miterlimit:4;stroke-dasharray:none;stroke-dashoffset:0;stroke-opacity:1;paint-order:markers stroke fill" />
        <path
           inkscape:connector-curvature="0"
           id="path13650"
           d="m -1570.5682,-97.233354 v 11.669588 11.669004 h 420.0074 v -11.669004 -11.669588 z"
           style="opacity:1;vector-effect:none;fill:#3f9eb5;fill-opacity:1;fill-rule:nonzero;stroke:none;stroke-width:0.20423655;stroke-linecap:butt;stroke-linejoin:miter;stroke-miterlimit:4;stroke-dasharray:none;stroke-dashoffset:0;stroke-opacity:1;paint-order:markers stroke fill" />
      </g>
      <path
         style="fill:#000000;fill-opacity:1;stroke:none;stroke-width:0.26458332px;stroke-linecap:butt;stroke-linejoin:miter;stroke-opacity:1"
         d="M -1290.4122,504.76364 -1430.4146,691.4749 -1570.4172,504.76364 Z"
         id="path13654"
         inkscape:connector-curvature="0"
         sodipodi:nodetypes="cccc" />
      <path
         sodipodi:nodetypes="ccscscccccccccccccccscc"
         inkscape:connector-curvature="0"
         id="path858"
         d="m -1426.2017,472.1161 c 0,0 -9.5134,3.54598 -11.7622,20.23838 4.8438,2.42177 6.021,7.64353 6.573,12.2816 0.3102,2.60853 3.4595,17.81697 -4.4975,8.82207 2.0757,2.76758 3.2865,9.6879 3.2865,15.56797 0,26.68651 -8.6843,46.12301 1.6594,103.79697 0,0 -22.1566,0.33553 -18.6108,5.69767 -13.5786,-4.67044 -8.1503,-14.88341 -2.8538,-20.67066 -9.0512,-20.54874 -12.8815,-59.61077 7.1777,-83.0949 -25.6006,8.99471 -40.9953,27.65507 -30.4439,67.61293 10.898,-5.01642 25.2547,20.06588 12.9735,28.19586 0,0 6.2611,11.72941 25.5651,14.01701 0.2323,-3.09761 3.1708,-5.50751 6.72,-5.51112 3.5512,0 6.4934,2.41094 6.7265,5.51062 19.2992,-2.28942 25.5586,-14.01651 25.5586,-14.01651 -12.2809,-8.12998 2.0757,-33.21228 12.9732,-28.19586 10.5517,-39.95786 -4.8432,-58.61822 -30.4439,-67.61293 20.0595,23.48413 16.2295,62.54616 7.1786,83.0949 5.2959,5.78725 10.7245,16.00022 -2.8541,20.67066 3.5459,-5.36214 -18.6109,-5.69767 -18.6109,-5.69767 10.3435,-57.67396 1.6595,-77.11046 1.6595,-103.79697 0,-5.88007 2.1268,-13.45441 4.4473,-14.87652 -6.7457,-5.88118 -12.4545,-21.9681 -2.4218,-42.0335 z"
         style="fill:#f9f9f9;fill-opacity:1;stroke:none;stroke-width:0.26700181px;stroke-linecap:butt;stroke-linejoin:miter;stroke-opacity:1" />
    </g>
    <g
       id="g13579"
       transform="translate(-2037.212,-316.76915)">
      <rect
         width="419.82169"
         height="279.88116"
         x="-1125.8826"
         y="112.49201"
         style="fill:#1977ad;fill-opacity:1;stroke-width:0.64787304"
         id="rect13729" />
      <g
         style="fill:#e01927;fill-opacity:1"
         transform="translate(444.49994,338.0895)"
         id="g13737">
        <path
           style="opacity:1;vector-effect:none;fill:#e01927;fill-opacity:1;fill-rule:nonzero;stroke:none;stroke-width:0.20423655;stroke-linecap:butt;stroke-linejoin:miter;stroke-miterlimit:4;stroke-dasharray:none;stroke-dashoffset:0;stroke-opacity:1;paint-order:markers stroke fill"
           d="m -1570.5685,-132.24187 v 11.66959 11.66959 h 420.0075 v -11.66959 -11.66959 z"
           id="path13731"
           inkscape:connector-curvature="0" />
        <path
           style="opacity:1;vector-effect:none;fill:#e01927;fill-opacity:1;fill-rule:nonzero;stroke:none;stroke-width:0.20423655;stroke-linecap:butt;stroke-linejoin:miter;stroke-miterlimit:4;stroke-dasharray:none;stroke-dashoffset:0;stroke-opacity:1;paint-order:markers stroke fill"
           d="m -1570.5682,-62.225173 v 11.669588 11.669588 h 420.0074 v -11.669588 -11.669588 z"
           id="path13733"
           inkscape:connector-curvature="0" />
        <path
           style="opacity:1;vector-effect:none;fill:#e01927;fill-opacity:1;fill-rule:nonzero;stroke:none;stroke-width:0.20423655;stroke-linecap:butt;stroke-linejoin:miter;stroke-miterlimit:4;stroke-dasharray:none;stroke-dashoffset:0;stroke-opacity:1;paint-order:markers stroke fill"
           d="m -1570.5682,-97.233354 v 11.669588 11.669004 h 420.0074 v -11.669004 -11.669588 z"
           id="path13735"
           inkscape:connector-curvature="0" />
      </g>
      <path
         sodipodi:nodetypes="cccc"
         inkscape:connector-curvature="0"
         id="path13739"
         d="M -776.0622,159.16981 -916.0646,345.88108 -1056.0672,159.16981 Z"
         style="fill:#1977ad;fill-opacity:1;stroke:none;stroke-width:0.26458332px;stroke-linecap:butt;stroke-linejoin:miter;stroke-opacity:1" />
      <g
         id="g13747"
         transform="translate(1005.4166,338.0895)">
        <path
           inkscape:connector-curvature="0"
           id="path13741"
           d="m -1920.6448,-178.91984 c -13.7592,0 -26.1956,6.38242 -35.1045,16.66322 0,0 -10e-5,0 -10e-5,0 -0.1373,0.15817 -0.2734,0.31727 -0.4089,0.47725 -8.3936,9.92016 -13.5469,23.35237 -13.5469,38.14075 0,15.05182 3.1546,36.694375 10.6749,54.774151 2.8569,6.868358 -2.0525,3.674163 1.1366,13.689307 1.9861,6.237148 2.2354,5.775532 8.2289,3.938615 6.9097,-2.117695 5.1988,-7.701418 4.6561,-10.03407 -0.5583,-2.400208 -1.313,-4.790307 -2.3579,-7.593852 -5.5213,-14.812185 -7.8291,-32.790971 -7.8291,-45.220301 0,-24.73112 15.469,-44.77959 34.5509,-44.77959 19.0818,0 34.5507,20.04847 34.5507,44.77959 0,10.80929 -1.7466,25.814743 -5.833,39.285419 0,0.0059 0,0.01199 -0.013,0.01789 -0.035,0.119769 -0.073,0.239656 -0.1098,0.359188 0,0.006 0,0.01186 -0.013,0.01789 -0.1335,0.434049 -0.2684,0.867005 -0.4067,1.297541 0,7.8e-5 0,1.78e-4 0,2.57e-4 -0.1384,0.43033 -0.28,0.858167 -0.4232,1.284605 -5e-4,0.0015 -9e-4,0.0027 0,0.0045 -0.095,0.284125 -0.1913,0.568111 -0.2889,0.850366 -0.1083,0.313594 -0.2189,0.625473 -0.3301,0.936607 0.1111,-0.311097 0.2217,-0.623054 0.3301,-0.936607 0.099,-0.28228 0.1934,-0.566218 0.2889,-0.850366 -0.2055,0.611269 -0.4155,1.218731 -0.6314,1.821029 -0.019,0.05504 -0.039,0.110101 -0.059,0.165055 -0.1161,0.323747 -0.2345,0.64632 -0.354,0.967191 -1.0449,2.803544 -1.7996,5.193643 -2.3579,7.593852 -0.5427,2.33265 -2.2536,7.916374 4.6561,10.034068 5.9935,1.836918 6.2428,2.298534 8.2289,-3.938613 3.1891,-10.015146 -1.7203,-6.82095 1.1366,-13.689307 7.5203,-18.07978 10.6749,-39.722325 10.6749,-54.774145 0,-30.53087 -21.9649,-55.28122 -49.0601,-55.28122 z m 27.0644,109.119503 c -0.1135,0.31314 -0.2266,0.625422 -0.3424,0.935868 0.116,-0.310469 0.2295,-0.622696 0.3424,-0.935868 z"
           style="opacity:1;vector-effect:none;fill:#e01927;fill-opacity:1;fill-rule:nonzero;stroke:none;stroke-width:5.58169031;stroke-linecap:butt;stroke-linejoin:miter;stroke-miterlimit:4;stroke-dasharray:none;stroke-dashoffset:0;stroke-opacity:1;paint-order:markers stroke fill" />
        <path
           style="color:#000000;font-style:normal;font-variant:normal;font-weight:normal;font-stretch:normal;font-size:medium;line-height:normal;font-family:sans-serif;font-variant-ligatures:normal;font-variant-position:normal;font-variant-caps:normal;font-variant-numeric:normal;font-variant-alternates:normal;font-feature-settings:normal;text-indent:0;text-align:start;text-decoration:none;text-decoration-line:none;text-decoration-style:solid;text-decoration-color:#000000;letter-spacing:normal;word-spacing:normal;text-transform:none;writing-mode:lr-tb;direction:ltr;text-orientation:mixed;dominant-baseline:auto;baseline-shift:baseline;text-anchor:start;white-space:normal;shape-padding:0;clip-rule:nonzero;display:inline;overflow:visible;visibility:visible;opacity:1;isolation:auto;mix-blend-mode:normal;color-interpolation:sRGB;color-interpolation-filters:linearRGB;solid-color:#000000;solid-opacity:1;vector-effect:none;fill:#1977ad;fill-opacity:1;fill-rule:nonzero;stroke:none;stroke-width:5.06960201;stroke-linecap:butt;stroke-linejoin:miter;stroke-miterlimit:4;stroke-dasharray:10.13920349, 5.06960175;stroke-dashoffset:0;stroke-opacity:1;color-rendering:auto;image-rendering:auto;shape-rendering:auto;text-rendering:auto;enable-background:accumulate"
           d="m -1954.8555,-152.46875 c -1.7664,2.30477 -3.3007,4.78969 -4.5371,7.41786 1.5312,0.71484 3.0625,1.42969 4.5937,2.14453 1.3325,-2.80806 3.0349,-5.43827 5.0528,-7.80273 -1.3086,-1.06901 -2.6172,-2.13803 -3.9258,-3.20704 -0.3945,0.48246 -0.7891,0.96492 -1.1836,1.44738 z m -6.5976,12.45117 c -1.1206,3.30178 -1.9187,6.70751 -2.4601,10.15037 1.6667,0.27865 3.3333,0.55729 5,0.83594 0.4958,-3.18523 1.218,-6.33862 2.2615,-9.39082 -1.5872,-0.57943 -3.1745,-1.15885 -4.7617,-1.73828 z m -3.1817,16.96289 c -0.168,2.93777 -0.2162,5.88249 -0.1293,8.82412 1.6894,-0.0358 3.3789,-0.0716 5.0683,-0.10742 -0.089,-3.29538 -0.032,-6.59692 0.2407,-9.88288 -1.6849,-0.12956 -3.3698,-0.25912 -5.0547,-0.38868 -0.042,0.51829 -0.083,1.03657 -0.125,1.55486 z m 0.1172,13.9668 c 0.2843,3.45622 0.6389,6.90829 1.1436,10.339799 1.6693,-0.264323 3.3385,-0.528646 5.0078,-0.792969 -0.4526,-3.26081 -0.8107,-6.53306 -1.0789,-9.81446 -1.6908,0.0892 -3.3817,0.17842 -5.0725,0.26763 z m 1.9434,15.416015 c 0.5944,3.35103 1.2914,6.680194 2.0219,10.003906 1.6523,-0.354167 3.3047,-0.708333 4.957,-1.0625 -0.7271,-3.278747 -1.3937,-6.569285 -1.9863,-9.875041 -1.6642,0.311212 -3.3284,0.622423 -4.9926,0.933635 z"
           id="path13743"
           inkscape:connector-curvature="0" />
        <path
           style="color:#000000;font-style:normal;font-variant:normal;font-weight:normal;font-stretch:normal;font-size:medium;line-height:normal;font-family:sans-serif;font-variant-ligatures:normal;font-variant-position:normal;font-variant-caps:normal;font-variant-numeric:normal;font-variant-alternates:normal;font-feature-settings:normal;text-indent:0;text-align:start;text-decoration:none;text-decoration-line:none;text-decoration-style:solid;text-decoration-color:#000000;letter-spacing:normal;word-spacing:normal;text-transform:none;writing-mode:lr-tb;direction:ltr;text-orientation:mixed;dominant-baseline:auto;baseline-shift:baseline;text-anchor:start;white-space:normal;shape-padding:0;clip-rule:nonzero;display:inline;overflow:visible;visibility:visible;opacity:1;isolation:auto;mix-blend-mode:normal;color-interpolation:sRGB;color-interpolation-filters:linearRGB;solid-color:#000000;solid-opacity:1;vector-effect:none;fill:#1977ad;fill-opacity:1;fill-rule:nonzero;stroke:none;stroke-width:5.06960201;stroke-linecap:butt;stroke-linejoin:miter;stroke-miterlimit:4;stroke-dasharray:10.13920349, 5.06960175;stroke-dashoffset:0;stroke-opacity:1;color-rendering:auto;image-rendering:auto;shape-rendering:auto;text-rendering:auto;enable-background:accumulate"
           d="m -1891.5566,-150.70898 c 2.018,2.36433 3.7201,4.99487 5.0527,7.80273 1.5312,-0.71484 3.0625,-1.42969 4.5937,-2.14453 -1.5052,-3.18945 -3.431,-6.18032 -5.7188,-8.86513 -1.3092,1.06898 -2.6184,2.13795 -3.9276,3.20693 z m 6.8906,12.2871 c 1.0405,3.05339 1.7763,6.20399 2.2677,9.39064 1.6667,-0.27865 3.3333,-0.55729 5,-0.83594 -0.5465,-3.49264 -1.3529,-6.95015 -2.5092,-10.29295 -1.5862,0.57942 -3.1723,1.15883 -4.7585,1.73825 z m 2.8222,14.20118 c 0.2754,3.28594 0.3315,6.58756 0.2386,9.88295 1.6895,0.0358 3.3789,0.0716 5.0684,0.10742 0.096,-3.46069 0.034,-6.92788 -0.2485,-10.37881 -1.6862,0.12948 -3.3723,0.25896 -5.0585,0.38844 z m -0.012,14.96679 c -0.2664,3.2474 -0.6194,6.48592 -1.0699,9.712894 1.6693,0.264323 3.3385,0.528646 5.0078,0.792969 0.4972,-3.431993 0.8721,-6.881723 1.1354,-10.339803 -1.6544,-0.0195 -3.5732,-0.32462 -5.0733,-0.16606 z m -2.7617,19.470707 c -0.3582,1.684519 -0.7218,3.368474 -1.0821,5.052775 1.6524,0.354167 3.3047,0.708333 4.9571,1.0625 0.731,-3.323501 1.4275,-6.652645 2.02,-10.003906 -1.6608,-0.311198 -3.3216,-0.622396 -4.9824,-0.933594 -0.3042,1.607408 -0.6084,3.214817 -0.9126,4.822225 z"
           id="path13745"
           inkscape:connector-curvature="0" />
      </g>
    </g>
    <g
       id="g13554"
       transform="translate(-447.6883,-42.600349)">
      <rect
         width="419.82169"
         height="279.88116"
         x="-2715.4993"
         y="458.08585"
         style="fill:#66192b;fill-opacity:1;stroke-width:0.64787298"
         id="rect13793" />
      <path
         sodipodi:nodetypes="cccc"
         inkscape:connector-curvature="0"
         id="path13803"
         d="m -2394.7827,672.06807 -110.8986,-147.8976 -110.8988,147.8976 z"
         style="fill:#d8cb84;fill-opacity:1;stroke:#66192b;stroke-width:7.90999985;stroke-linecap:butt;stroke-linejoin:miter;stroke-miterlimit:4;stroke-dasharray:none;stroke-opacity:1" />
    </g>
    <g
       id="g13494"
       transform="translate(661.53809,-972.24434)">
      <rect
         width="419.82169"
         height="279.88116"
         x="-3824.6328"
         y="458.08585"
         style="fill:#e01927;fill-opacity:1;stroke-width:0.64787298"
         id="rect13837" />
      <path
         style="fill:#000000;fill-opacity:1;stroke:none;stroke-width:0.32404718px;stroke-linecap:butt;stroke-linejoin:miter;stroke-opacity:1"
         d="m -3824.8187,458.08574 v 139.94072 l 210.0042,93.44863 210.0038,-93.44863 V 458.08574 Z"
         id="path13839"
         inkscape:connector-curvature="0"
         sodipodi:nodetypes="cccccc" />
    </g>
    <g
       id="g13550"
       transform="translate(-892.09997,302.99349)">
      <rect
         width="419.82169"
         height="279.88116"
         x="-2721.0027"
         y="112.49201"
         style="fill:#ff0000;fill-opacity:1;stroke-width:0.64787304"
         id="rect13868" />
      <g
         style="fill:#fca000;fill-opacity:1"
         transform="translate(-1150.6202,338.0895)"
         id="g13876">
        <path
           style="opacity:1;vector-effect:none;fill:#fca000;fill-opacity:1;fill-rule:nonzero;stroke:none;stroke-width:0.20423655;stroke-linecap:butt;stroke-linejoin:miter;stroke-miterlimit:4;stroke-dasharray:none;stroke-dashoffset:0;stroke-opacity:1;paint-order:markers stroke fill"
           d="m -1570.5685,-132.24187 v 11.66959 11.66959 h 420.0075 v -11.66959 -11.66959 z"
           id="path13870"
           inkscape:connector-curvature="0" />
        <path
           style="opacity:1;vector-effect:none;fill:#fca000;fill-opacity:1;fill-rule:nonzero;stroke:none;stroke-width:0.20423655;stroke-linecap:butt;stroke-linejoin:miter;stroke-miterlimit:4;stroke-dasharray:none;stroke-dashoffset:0;stroke-opacity:1;paint-order:markers stroke fill"
           d="m -1570.5682,-62.225173 v 11.669588 11.669588 h 420.0074 v -11.669588 -11.669588 z"
           id="path13872"
           inkscape:connector-curvature="0" />
        <path
           style="opacity:1;vector-effect:none;fill:#fca000;fill-opacity:1;fill-rule:nonzero;stroke:none;stroke-width:0.20423655;stroke-linecap:butt;stroke-linejoin:miter;stroke-miterlimit:4;stroke-dasharray:none;stroke-dashoffset:0;stroke-opacity:1;paint-order:markers stroke fill"
           d="m -1570.5682,-97.233354 v 11.669588 11.669004 h 420.0074 v -11.669004 -11.669588 z"
           id="path13874"
           inkscape:connector-curvature="0" />
      </g>
      <path
         sodipodi:nodetypes="cccc"
         inkscape:connector-curvature="0"
         id="path13878"
         d="m -2371.1824,159.16981 -140.0024,186.71127 -140.0026,-186.71127 z"
         style="fill:#fca000;fill-opacity:1;stroke:none;stroke-width:0.26458332px;stroke-linecap:butt;stroke-linejoin:miter;stroke-opacity:1" />
      <path
         id="path13911"
         transform="scale(0.26458333)"
         d="m -9594.5527,914.24609 -115.5703,53.12891 126.2753,-16.83789 -88.7109,91.42969 111.668,-61.31446 -64.541,129.39066 96.8242,-109.6035 -21.6387,199.5371 58.8926,-192.7461 59.9824,192.209 -22.793,-199.336 97.7051,108.7207 -65.5996,-128.80076 112.2168,60.30276 -89.5352,-90.62308 126.4239,15.69141 -113.9707,-51.14844 z"
         style="opacity:1;vector-effect:none;fill:#ff4400;fill-opacity:1;fill-rule:nonzero;stroke:none;stroke-width:16.89468956;stroke-linecap:butt;stroke-linejoin:miter;stroke-miterlimit:4;stroke-dasharray:none;stroke-dashoffset:0;stroke-opacity:1;paint-order:markers stroke fill"
         inkscape:connector-curvature="0" />
    </g>
    <g
       id="g13583"
       transform="translate(-2961.5119,-352.48167)">
      <rect
         width="419.82169"
         height="279.88116"
         x="-1101.6919"
         y="458.08585"
         style="fill:#1977ad;fill-opacity:1;stroke-width:0.64787298"
         id="rect13713" />
      <rect
         width="139.94054"
         height="279.88116"
         x="-961.75134"
         y="458.08585"
         style="fill:#aed9ff;fill-opacity:1;stroke-width:0.37404963"
         id="rect13944" />
    </g>
    <g
       id="g13649"
       transform="translate(-769.76151,-616.64425)">
      <rect
         width="419.82169"
         height="279.88116"
         x="-3293.3494"
         y="102.48585"
         style="fill:#1977ad;fill-opacity:1;stroke-width:0.64787298"
         id="rect13833" />
      <path
         style="fill:#75dbff;fill-opacity:1;stroke:none;stroke-width:0.32404718px;stroke-linecap:butt;stroke-linejoin:miter;stroke-opacity:1"
         d="m -3293.5354,102.48574 v 139.94072 l 210.0043,93.44863 210.0037,-93.44863 V 102.48574 Z"
         id="path13835"
         inkscape:connector-curvature="0"
         sodipodi:nodetypes="cccccc" />
      <g
         id="g951">
        <g
           id="g924"
           style="stroke:#ffffff"
           transform="matrix(1.5883162,0,0,1.5883162,1689.5321,104.21886)">
          <path
             style="opacity:1;fill:none;stroke:#ffffff;stroke-width:6;stroke-linecap:butt;stroke-linejoin:miter;stroke-miterlimit:4;stroke-dasharray:none;stroke-opacity:1"
             d="m -3048.2139,50.305362 c 0,-6.836366 -1.8715,-15.391704 -5.2681,-20.744316 -4.0065,-6.313803 1.3483,-8.827903 4.5756,-11.072967 -0.1894,-0.317312 -1.2363,-1.454182 -1.5468,-1.72352 l -10.7515,3.421705 c 16.0073,25.135417 2.5439,50.436446 -21.6423,50.436446 -24.1862,0 -37.6496,-25.301029 -21.6423,-50.436446 l -10.7515,-3.421705 c -0.3105,0.269338 -1.3574,1.406208 -1.5468,1.72352 3.2273,2.245064 8.5821,4.759164 4.5756,11.072967 -3.3966,5.352612 -5.2681,13.90795 -5.2681,20.744316 0,8.617719 4.1874,29.546139 34.6331,29.546139 30.4457,0 34.6331,-20.92842 34.6331,-29.546139 z"
             id="path900"
             inkscape:connector-curvature="0"
             sodipodi:nodetypes="sscccccccsscs" />
          <path
             inkscape:connector-curvature="0"
             id="path904"
             transform="scale(0.26458333)"
             d="m -11739.033,226.26172 -26.518,26.51758 z m 174.656,0 26.518,26.51758 z m -137.334,29.5332 -15.049,35.16797 z m 100.012,0 15.049,35.16797 z"
             style="opacity:1;fill:none;stroke:#ffffff;stroke-width:22.67716599;stroke-linecap:butt;stroke-linejoin:miter;stroke-miterlimit:4;stroke-dasharray:none;stroke-opacity:1" />
        </g>
        <g
           id="g929"
           style="fill:#ffffff;stroke:#ffffff"
           transform="matrix(1.5854708,-0.09503044,0.09503044,1.5854708,1676.7856,-188.53218)">
          <path
             sodipodi:nodetypes="cccccc"
             inkscape:connector-curvature="0"
             id="path909"
             d="m -3072.6039,42.933586 c 0,-11.653903 -7.8565,-8.566308 -10.3368,-12.862344 -2.247,0 -4.2562,-1.1e-5 -4.2562,-1.1e-5 -1.3392,2.319536 -3.3669,2.946656 -4.9111,2.946656 v 9.172335 l 20.5334,3e-6"
             style="opacity:1;fill:#ffffff;stroke:#ffffff;stroke-width:5;stroke-linecap:butt;stroke-linejoin:miter;stroke-miterlimit:4;stroke-dasharray:none;stroke-opacity:1" />
          <path
             sodipodi:nodetypes="ccccccc"
             inkscape:connector-curvature="0"
             id="rect915"
             d="m -3086.8936,40.751041 h 6.4821 v 44.812258 c 0,0 -0.8543,1.396675 -1.8366,2.14503 0,0 -1.8605,0.309474 -2.7889,0.309474 -0.2339,-0.704243 -1.4037,-1.991321 -1.8566,-2.140631 z"
             style="opacity:1;vector-effect:none;fill:#ffffff;fill-opacity:1;fill-rule:nonzero;stroke:#ffffff;stroke-width:3;stroke-linecap:butt;stroke-linejoin:miter;stroke-miterlimit:4;stroke-dasharray:none;stroke-dashoffset:0;stroke-opacity:1;paint-order:markers stroke fill" />
        </g>
      </g>
    </g>
    <g
       id="g13541"
       transform="translate(-319.75323,-972.24425)">
      <rect
         id="rect13820"
         style="fill:#1977ad;fill-opacity:1;stroke-width:0.64787298"
         y="458.08585"
         x="-3293.3494"
         height="279.88116"
         width="419.82169" />
      <path
         sodipodi:nodetypes="cccccc"
         inkscape:connector-curvature="0"
         id="path13822"
         transform="scale(0.26458333)"
         d="m -12448.008,1731.3477 v 528.9098 l 793.717,353.1917 793.715,-353.1917 v -528.9098 z"
         style="fill:#e01927;fill-opacity:1;stroke:none;stroke-width:1.22474527px;stroke-linecap:butt;stroke-linejoin:miter;stroke-opacity:1" />
      <path
         inkscape:connector-curvature="0"
         id="path953"
         d="m -3223.2822,474.77989 v 4.23936 h 11.2205 v -4.23936 z m -14.8938,5.82758 v 15.47344 a 4.6685487,4.6685487 0 0 1 4.6684,4.66863 h 29.2077 l 17.5321,-8.91455 v -2.31297 l -17.5321,-8.91455 z m -15.2776,10.12196 -13.7095,12.35279 21.0344,17.06986 10.0307,-15.33799 z m 71.5661,0 -17.3552,14.08466 10.0307,15.33799 21.034,-17.06986 z m -41.3947,11.60833 v 110.32422 h 6.5755 a 4.6453874,2.218003 0 0 1 4.645,-2.21778 V 502.33776 Z m 45.0029,10.98459 -10.3838,8.42699 c 1.5629,4.73587 2.4436,9.9736 2.4436,15.56126 0,19.61396 -10.7812,34.97797 -24.2542,39.08744 v 15.75579 c 22.2194,-4.04827 38.3092,-26.54917 38.3092,-52.32093 0,-9.54294 -2.2084,-18.63564 -6.1148,-26.51055 z m -78.787,0.005 c -3.9054,7.87446 -6.1133,16.96609 -6.1133,26.50808 0,25.77305 16.0885,48.27513 38.3092,52.32176 v -15.7558 c -13.4737,-4.10803 -24.2542,-19.47271 -24.2542,-39.08822 0,-5.58637 0.8799,-10.82379 2.442,-15.55883 z m 1.4418,32.21828 a 1.7117396,1.7117396 0 0 1 1.7116,1.71214 1.7117396,1.7117396 0 0 1 -1.7116,1.71137 1.7117396,1.7117396 0 0 1 -1.712,-1.71137 1.7117396,1.7117396 0 0 1 1.712,-1.71214 z m 75.9054,0 a 1.7117396,1.7117396 0 0 1 1.7117,1.71214 1.7117396,1.7117396 0 0 1 -1.7117,1.71137 1.7117396,1.7117396 0 0 1 -1.7121,-1.71137 1.7117396,1.7117396 0 0 1 1.7121,-1.71214 z m -71.3734,13.37223 a 2.0088956,2.0088956 0 0 1 2.0082,2.00846 2.0088956,2.0088956 0 0 1 -2.0082,2.0093 2.0088956,2.0088956 0 0 1 -2.0097,-2.0093 2.0088956,2.0088956 0 0 1 2.0097,-2.00846 z m 66.8419,0 a 2.0088956,2.0088956 0 0 1 2.0087,2.00846 2.0088956,2.0088956 0 0 1 -2.0087,2.0093 2.0088956,2.0088956 0 0 1 -2.0092,-2.0093 2.0088956,2.0088956 0 0 1 2.0092,-2.00846 z m -59.1907,11.14298 a 2.3060517,2.3060517 0 0 1 2.3064,2.30641 2.3060517,2.3060517 0 0 1 -2.3064,2.30641 2.3060517,2.3060517 0 0 1 -2.3057,-2.30641 2.3060517,2.3060517 0 0 1 2.3057,-2.30641 z m 51.5385,0 a 2.3060517,2.3060517 0 0 1 2.3067,2.30641 2.3060517,2.3060517 0 0 1 -2.3067,2.30641 2.3060517,2.3060517 0 0 1 -2.3062,-2.30641 2.3060517,2.3060517 0 0 1 2.3062,-2.30641 z m -40.5432,8.24644 a 2.3803405,2.3803405 0 0 1 2.3802,2.3803 2.3803405,2.3803405 0 0 1 -2.3802,2.38025 2.3803405,2.3803405 0 0 1 -2.3803,-2.38025 2.3803405,2.3803405 0 0 1 2.3803,-2.3803 z m 29.5481,0 a 2.3803405,2.3803405 0 0 1 2.381,2.3803 2.3803405,2.3803405 0 0 1 -2.381,2.38025 2.3803405,2.3803405 0 0 1 -2.3803,-2.38025 2.3803405,2.3803405 0 0 1 2.3803,-2.3803 z"
         style="color:#000000;font-style:normal;font-variant:normal;font-weight:normal;font-stretch:normal;font-size:medium;line-height:normal;font-family:sans-serif;font-variant-ligatures:normal;font-variant-position:normal;font-variant-caps:normal;font-variant-numeric:normal;font-variant-alternates:normal;font-feature-settings:normal;text-indent:0;text-align:start;text-decoration:none;text-decoration-line:none;text-decoration-style:solid;text-decoration-color:#000000;letter-spacing:normal;word-spacing:normal;text-transform:none;writing-mode:lr-tb;direction:ltr;text-orientation:mixed;dominant-baseline:auto;baseline-shift:baseline;text-anchor:start;white-space:normal;shape-padding:0;clip-rule:nonzero;display:inline;overflow:visible;visibility:visible;opacity:1;isolation:auto;mix-blend-mode:normal;color-interpolation:sRGB;color-interpolation-filters:linearRGB;solid-color:#000000;solid-opacity:1;vector-effect:none;fill:#1977ad;fill-opacity:1;fill-rule:nonzero;stroke:none;stroke-width:11.22145557;stroke-linecap:butt;stroke-linejoin:miter;stroke-miterlimit:4;stroke-dasharray:none;stroke-dashoffset:0;stroke-opacity:1;color-rendering:auto;image-rendering:auto;shape-rendering:auto;text-rendering:auto;enable-background:accumulate" />
    </g>
    <g
       style="fill:#e01927;fill-opacity:1"
       transform="translate(975.78327,338.0895)"
       id="g1045" />
    <g
       id="g13609"
       transform="translate(-4447.6863,302.99349)">
      <rect
         width="419.82169"
         height="279.88116"
         x="-65.432579"
         y="112.49201"
         style="fill:#1977ad;fill-opacity:1;stroke-width:0.64787304"
         id="rect1061" />
      <g
         id="g968"
         transform="translate(1504.95,338.0895)"
         style="fill:#aed9ff;fill-opacity:1">
        <path
           inkscape:connector-curvature="0"
           id="path962"
           d="m -1570.5685,-132.24187 v 11.66959 11.66959 h 420.0075 v -11.66959 -11.66959 z"
           style="opacity:1;vector-effect:none;fill:#aed9ff;fill-opacity:1;fill-rule:nonzero;stroke:none;stroke-width:0.20423655;stroke-linecap:butt;stroke-linejoin:miter;stroke-miterlimit:4;stroke-dasharray:none;stroke-dashoffset:0;stroke-opacity:1;paint-order:markers stroke fill" />
        <path
           inkscape:connector-curvature="0"
           id="path964"
           d="m -1570.5682,-62.225173 v 11.669588 11.669588 h 420.0074 v -11.669588 -11.669588 z"
           style="opacity:1;vector-effect:none;fill:#aed9ff;fill-opacity:1;fill-rule:nonzero;stroke:none;stroke-width:0.20423655;stroke-linecap:butt;stroke-linejoin:miter;stroke-miterlimit:4;stroke-dasharray:none;stroke-dashoffset:0;stroke-opacity:1;paint-order:markers stroke fill" />
        <path
           inkscape:connector-curvature="0"
           id="path966"
           d="m -1570.5682,-97.233354 v 11.669588 11.669004 h 420.0074 v -11.669004 -11.669588 z"
           style="opacity:1;vector-effect:none;fill:#aed9ff;fill-opacity:1;fill-rule:nonzero;stroke:none;stroke-width:0.20423655;stroke-linecap:butt;stroke-linejoin:miter;stroke-miterlimit:4;stroke-dasharray:none;stroke-dashoffset:0;stroke-opacity:1;paint-order:markers stroke fill" />
      </g>
      <rect
         y="112.49201"
         x="-65.432579"
         height="279.88116"
         width="139.94057"
         id="rect970"
         style="opacity:1;vector-effect:none;fill:#bf0a30;fill-opacity:1;fill-rule:nonzero;stroke:none;stroke-width:3.96875;stroke-linecap:butt;stroke-linejoin:miter;stroke-miterlimit:4;stroke-dasharray:none;stroke-dashoffset:0;stroke-opacity:1;paint-order:markers stroke fill" />
      <rect
         transform="rotate(45)"
         y="26.858751"
         x="132.22897"
         height="197.90587"
         width="197.90587"
         id="rect941"
         style="opacity:1;vector-effect:none;fill:#ffffff;fill-opacity:1;fill-rule:nonzero;stroke:none;stroke-width:8.74628639;stroke-linecap:butt;stroke-linejoin:miter;stroke-miterlimit:4;stroke-dasharray:none;stroke-dashoffset:0;stroke-opacity:1;paint-order:markers stroke fill" />
      <rect
         style="opacity:1;vector-effect:none;fill:#3c3b6e;fill-opacity:1;fill-rule:nonzero;stroke:none;stroke-width:8.21711922;stroke-linecap:butt;stroke-linejoin:miter;stroke-miterlimit:4;stroke-dasharray:none;stroke-dashoffset:0;stroke-opacity:1;paint-order:markers stroke fill"
         id="rect947"
         width="185.93221"
         height="185.93221"
         x="138.21581"
         y="32.845589"
         transform="rotate(45)" />
      <g
         transform="matrix(0.75423169,0,0,0.75423169,-209.46207,-68.039805)"
         id="g937">
        <path
           style="opacity:1;vector-effect:none;fill:none;fill-opacity:1;fill-rule:nonzero;stroke:#000000;stroke-width:12;stroke-linecap:butt;stroke-linejoin:miter;stroke-miterlimit:4;stroke-dasharray:none;stroke-dashoffset:0;stroke-opacity:1;paint-order:markers stroke fill"
           d="m 412.42744,338.25185 c 19.84083,19.84083 19.84083,52.00917 0,71.84999 -19.84083,19.84083 -52.00916,19.84083 -71.84999,0 -19.84083,-19.84082 -19.84083,-52.00916 0,-71.84999"
           id="path1174"
           inkscape:connector-curvature="0"
           sodipodi:nodetypes="cssc" />
        <path
           sodipodi:nodetypes="cssc"
           inkscape:connector-curvature="0"
           id="path917"
           d="m 412.42744,511.54643 c 19.84083,-19.84083 19.84083,-52.00917 0,-71.84999 -19.84083,-19.84083 -52.00916,-19.84083 -71.84999,0 -19.84083,19.84082 -19.84083,52.00916 0,71.84999"
           style="opacity:1;vector-effect:none;fill:none;fill-opacity:1;fill-rule:nonzero;stroke:#000000;stroke-width:12;stroke-linecap:butt;stroke-linejoin:miter;stroke-miterlimit:4;stroke-dasharray:none;stroke-dashoffset:0;stroke-opacity:1;paint-order:markers stroke fill" />
        <path
           transform="matrix(1,0,0,-0.86766876,0,801.19982)"
           inkscape:transform-center-y="6.0114114"
           inkscape:transform-center-x="11.479686"
           d="m 376.50244,444.27883 -6.2948,-54.905 -43.27481,34.3726 34.3726,-43.2748 -54.905,-6.29481 54.905,-6.29481 -34.3726,-43.2748 43.27481,34.3726 6.2948,-54.905 6.29481,54.905 43.2748,-34.3726 -34.3726,43.2748 54.905,6.29481 -54.905,6.2948 34.3726,43.27481 -43.2748,-34.3726 z"
           inkscape:randomized="0"
           inkscape:rounded="0"
           inkscape:flatsided="false"
           sodipodi:arg2="1.9634954"
           sodipodi:arg1="1.5707963"
           sodipodi:r2="16.449121"
           sodipodi:r1="70.102013"
           sodipodi:cy="374.17682"
           sodipodi:cx="376.50244"
           sodipodi:sides="8"
           id="path919"
           style="opacity:1;vector-effect:none;fill:#3c3b6e;fill-opacity:1;fill-rule:nonzero;stroke:none;stroke-width:3.96875;stroke-linecap:butt;stroke-linejoin:miter;stroke-miterlimit:4;stroke-dasharray:none;stroke-dashoffset:0;stroke-opacity:1;paint-order:markers stroke fill"
           sodipodi:type="star" />
        <path
           sodipodi:type="star"
           style="opacity:1;vector-effect:none;fill:#3c3b6e;fill-opacity:1;fill-rule:nonzero;stroke:none;stroke-width:3.96875;stroke-linecap:butt;stroke-linejoin:miter;stroke-miterlimit:4;stroke-dasharray:none;stroke-dashoffset:0;stroke-opacity:1;paint-order:markers stroke fill"
           id="path910"
           sodipodi:sides="8"
           sodipodi:cx="376.50244"
           sodipodi:cy="374.17682"
           sodipodi:r1="70.102013"
           sodipodi:r2="16.449121"
           sodipodi:arg1="1.5707963"
           sodipodi:arg2="1.9634954"
           inkscape:flatsided="false"
           inkscape:rounded="0"
           inkscape:randomized="0"
           d="m 376.50244,444.27883 -6.2948,-54.905 -43.27481,34.3726 34.3726,-43.2748 -54.905,-6.29481 54.905,-6.29481 -34.3726,-43.2748 43.27481,34.3726 6.2948,-54.905 6.29481,54.905 43.2748,-34.3726 -34.3726,43.2748 54.905,6.29481 -54.905,6.2948 34.3726,43.27481 -43.2748,-34.3726 z"
           inkscape:transform-center-x="11.479686"
           inkscape:transform-center-y="6.0114114"
           transform="matrix(1,0,0,0.86766876,0,48.59846)" />
        <path
           style="color:#000000;font-style:normal;font-variant:normal;font-weight:normal;font-stretch:normal;font-size:medium;line-height:normal;font-family:sans-serif;font-variant-ligatures:normal;font-variant-position:normal;font-variant-caps:normal;font-variant-numeric:normal;font-variant-alternates:normal;font-feature-settings:normal;text-indent:0;text-align:start;text-decoration:none;text-decoration-line:none;text-decoration-style:solid;text-decoration-color:#000000;letter-spacing:normal;word-spacing:normal;text-transform:none;writing-mode:lr-tb;direction:ltr;text-orientation:mixed;dominant-baseline:auto;baseline-shift:baseline;text-anchor:start;white-space:normal;shape-padding:0;clip-rule:nonzero;display:inline;overflow:visible;visibility:visible;opacity:1;isolation:auto;mix-blend-mode:normal;color-interpolation:sRGB;color-interpolation-filters:linearRGB;solid-color:#000000;solid-opacity:1;vector-effect:none;fill:#000000;fill-opacity:1;fill-rule:nonzero;stroke:none;stroke-width:9.70888042;stroke-linecap:butt;stroke-linejoin:miter;stroke-miterlimit:4;stroke-dasharray:none;stroke-dashoffset:0;stroke-opacity:1;color-rendering:auto;image-rendering:auto;shape-rendering:auto;text-rendering:auto;enable-background:accumulate"
           d="m 342.34301,322.95336 -13.08806,9.68676 20.08042,13.38522 9.57564,-12.02716 z m 68.31936,0 -16.56797,11.04482 9.57615,12.02716 20.07938,-13.38522 z"
           id="path1202"
           inkscape:connector-curvature="0" />
        <path
           inkscape:connector-curvature="0"
           id="path921"
           d="m 342.34301,526.84492 -13.08806,-9.68676 20.08042,-13.38522 9.57564,12.02716 z m 68.31936,0 -16.56797,-11.04482 9.57615,-12.02716 20.07938,13.38522 z"
           style="color:#000000;font-style:normal;font-variant:normal;font-weight:normal;font-stretch:normal;font-size:medium;line-height:normal;font-family:sans-serif;font-variant-ligatures:normal;font-variant-position:normal;font-variant-caps:normal;font-variant-numeric:normal;font-variant-alternates:normal;font-feature-settings:normal;text-indent:0;text-align:start;text-decoration:none;text-decoration-line:none;text-decoration-style:solid;text-decoration-color:#000000;letter-spacing:normal;word-spacing:normal;text-transform:none;writing-mode:lr-tb;direction:ltr;text-orientation:mixed;dominant-baseline:auto;baseline-shift:baseline;text-anchor:start;white-space:normal;shape-padding:0;clip-rule:nonzero;display:inline;overflow:visible;visibility:visible;opacity:1;isolation:auto;mix-blend-mode:normal;color-interpolation:sRGB;color-interpolation-filters:linearRGB;solid-color:#000000;solid-opacity:1;vector-effect:none;fill:#000000;fill-opacity:1;fill-rule:nonzero;stroke:none;stroke-width:9.70888042;stroke-linecap:butt;stroke-linejoin:miter;stroke-miterlimit:4;stroke-dasharray:none;stroke-dashoffset:0;stroke-opacity:1;color-rendering:auto;image-rendering:auto;shape-rendering:auto;text-rendering:auto;enable-background:accumulate" />
      </g>
    </g>
    <g
       id="g13490"
       transform="translate(-688.4863,-616.64425)">
      <rect
         id="rect13841"
         style="fill:#1977ad;fill-opacity:1;stroke-width:0.64787298"
         y="102.48585"
         x="-3824.6328"
         height="279.88116"
         width="419.82169" />
      <path
         sodipodi:nodetypes="cccccc"
         inkscape:connector-curvature="0"
         id="path13843"
         d="m -3824.8187,102.48574 v 139.94072 l 210.0043,93.44863 210.0037,-93.44863 V 102.48574 Z"
         style="fill:#75dbff;fill-opacity:1;stroke:none;stroke-width:0.32404718px;stroke-linecap:butt;stroke-linejoin:miter;stroke-opacity:1" />
      <g
         transform="matrix(0.80249181,0,0,0.80249181,-14455.813,4982.2547)"
         id="g15527">
        <path
           style="opacity:1;fill:#75dbff;fill-opacity:1;stroke:none;stroke-width:4.28273726;stroke-miterlimit:4;stroke-dasharray:none;stroke-dashoffset:0;stroke-opacity:1;paint-order:normal"
           d="m 13342.694,-6028.5761 a 41.325865,41.325865 0 0 0 -24.277,7.9468 41.325865,41.325865 0 0 0 -17.043,33.3783 41.325865,41.325865 0 0 0 13.721,30.6995 v 0 a 41.325865,41.325865 0 0 0 27.597,10.622 41.325865,41.325865 0 0 0 41.323,-41.3251 41.325865,41.325865 0 0 0 -41.323,-41.327 z m -2.705,7.5476 a 34.660402,34.660402 0 0 1 3.256,1.1884 34.660402,34.660402 0 0 0 -3.254,-1.1884 z m 3.257,1.1884 a 34.660402,34.660402 0 0 1 3.121,1.507 34.660402,34.660402 0 0 1 2.955,1.8109 34.660402,34.660402 0 0 1 2.755,2.0966 34.660402,34.660402 0 0 1 2.535,2.362 34.660402,34.660402 0 0 1 2.285,2.6019 34.660402,34.660402 0 0 1 2.019,2.8181 34.660402,34.660402 0 0 1 1.722,3.0047 34.660402,34.660402 0 0 1 1.415,3.1641 34.660402,34.660402 0 0 1 1.093,3.2867 34.660402,34.660402 0 0 1 0.759,3.3801 34.660402,34.660402 0 0 1 0.419,3.4406 34.660402,34.660402 0 0 1 0.09,2.4517 34.660402,34.660402 0 0 1 -0.178,3.4589 34.660402,34.660402 0 0 1 -0.517,3.4259 34.660402,34.660402 0 0 1 -0.858,3.3582 34.660402,34.660402 0 0 1 -1.183,3.2537 34.660402,34.660402 0 0 1 -1.507,3.1201 34.660402,34.660402 0 0 1 -1.814,2.9535 34.660402,34.660402 0 0 1 -2.094,2.7576 34.660402,34.660402 0 0 1 -2.363,2.5324 34.660402,34.660402 0 0 0 2.361,-2.5324 34.660402,34.660402 0 0 0 2.094,-2.7576 34.660402,34.660402 0 0 0 1.812,-2.9535 34.660402,34.660402 0 0 0 1.508,-3.1201 34.660402,34.660402 0 0 0 1.184,-3.2537 34.660402,34.660402 0 0 0 0.858,-3.3582 34.660402,34.660402 0 0 0 0.515,-3.4259 34.660402,34.660402 0 0 0 0.18,-3.4589 34.660402,34.660402 0 0 0 -0.09,-2.4517 34.660402,34.660402 0 0 0 -0.421,-3.4406 34.660402,34.660402 0 0 0 -0.758,-3.3801 34.660402,34.660402 0 0 0 -1.092,-3.2867 34.660402,34.660402 0 0 0 -1.417,-3.1641 34.660402,34.660402 0 0 0 -1.721,-3.0047 34.660402,34.660402 0 0 0 -2.02,-2.8181 34.660402,34.660402 0 0 0 -2.284,-2.6019 34.660402,34.660402 0 0 0 -2.534,-2.362 34.660402,34.660402 0 0 0 -2.757,-2.0966 34.660402,34.660402 0 0 0 -2.951,-1.8109 34.660402,34.660402 0 0 0 -3.119,-1.507 z m 10.648,56.7883 a 34.660402,34.660402 0 0 1 -2.6,2.2852 34.660402,34.660402 0 0 1 -2.818,2.016 34.660402,34.660402 0 0 1 -3.001,1.723 34.660402,34.660402 0 0 0 2.998,-1.723 34.660402,34.660402 0 0 0 2.818,-2.016 34.660402,34.660402 0 0 0 2.603,-2.2852 z m -8.426,6.0261 a 34.660402,34.660402 0 0 1 -3.163,1.4136 34.660402,34.660402 0 0 0 3.162,-1.4136 z"
           id="path15514"
           inkscape:connector-curvature="0" />
        <path
           style="opacity:1;fill:#ffffff;fill-opacity:1;stroke:none;stroke-width:3.58857727;stroke-miterlimit:4;stroke-dasharray:none;stroke-dashoffset:0;stroke-opacity:1;paint-order:normal"
           d="m 13317.754,-6011.7374 a 34.627633,34.627633 0 0 0 -4.11,5.0155 22.911663,22.911663 0 0 1 19.276,-2.2348 29.04253,29.04253 0 0 1 1.68,-0.059 29.04253,29.04253 0 0 1 2.895,0.1885 29.04253,29.04253 0 0 1 2.866,0.4732 29.04253,29.04253 0 0 1 2.8,0.7601 29.04253,29.04253 0 0 1 2.714,1.0359 29.04253,29.04253 0 0 1 2.595,1.2999 29.04253,29.04253 0 0 1 2.451,1.5536 29.04253,29.04253 0 0 1 2.287,1.7902 29.04253,29.04253 0 0 1 1.504,1.402 29.04253,29.04253 0 0 1 1.945,2.1543 29.04253,29.04253 0 0 1 1.723,2.3366 29.04253,29.04253 0 0 1 1.481,2.4981 29.04253,29.04253 0 0 1 1.227,2.6286 29.04253,29.04253 0 0 1 0.955,2.7418 29.04253,29.04253 0 0 1 0.676,2.8243 29.04253,29.04253 0 0 1 0.393,2.8744 29.04253,29.04253 0 0 1 0.1,2.9011 29.04253,29.04253 0 0 0 -0.1,-2.9003 29.04253,29.04253 0 0 0 -0.394,-2.8735 29.04253,29.04253 0 0 0 -0.675,-2.8243 29.04253,29.04253 0 0 0 -0.956,-2.7418 29.04253,29.04253 0 0 0 -1.226,-2.6295 29.04253,29.04253 0 0 0 -1.481,-2.498 29.04253,29.04253 0 0 0 -1.724,-2.3348 29.04253,29.04253 0 0 0 -1.944,-2.1562 29.04253,29.04253 0 0 0 -1.503,-1.4019 29.04253,29.04253 0 0 0 -2.288,-1.7894 29.04253,29.04253 0 0 0 -2.452,-1.5528 29.04253,29.04253 0 0 0 -2.595,-1.3008 29.04253,29.04253 0 0 0 -2.714,-1.035 29.04253,29.04253 0 0 0 -2.799,-0.7609 29.04253,29.04253 0 0 0 -2.867,-0.4732 29.04253,29.04253 0 0 0 -2.895,-0.1877 29.04253,29.04253 0 0 0 -1.672,0.059 22.911663,22.911663 0 0 1 8.942,5.5021 22.911663,22.911663 0 0 1 0,32.4002 22.911663,22.911663 0 0 1 -14.982,6.6552 22.911663,22.911663 0 0 1 -13.214,-3.3763 34.627633,34.627633 0 0 0 4.082,5.0073 34.627633,34.627633 0 0 0 26.319,10.0599 v 0 a 34.627633,34.627633 0 0 0 22.644,-10.057 34.627633,34.627633 0 0 0 0,-48.9691 34.627633,34.627633 0 0 0 -48.97,0 z m -4.642,11.4935 a 19.216234,19.216234 0 0 1 1.813,-0.6306 19.216234,19.216234 0 0 0 -1.813,0.6306 z m 1.813,-0.6306 a 19.216234,19.216234 0 0 1 1.867,-0.448 19.216234,19.216234 0 0 1 1.902,-0.2599 19.216234,19.216234 0 0 1 1.921,-0.067 19.216234,19.216234 0 0 0 -1.919,0.065 19.216234,19.216234 0 0 0 -1.902,0.2599 19.216234,19.216234 0 0 0 -1.869,0.4505 z m 5.69,-0.7754 a 19.216234,19.216234 0 0 1 1.914,0.1242 19.216234,19.216234 0 0 1 1.897,0.3141 19.216234,19.216234 0 0 1 1.852,0.5026 19.216234,19.216234 0 0 1 1.797,0.6853 19.216234,19.216234 0 0 1 1.716,0.8598 19.216234,19.216234 0 0 1 1.623,1.0283 19.216234,19.216234 0 0 1 1.512,1.185 19.216234,19.216234 0 0 1 0.995,0.9274 19.216234,19.216234 0 0 1 1.289,1.4238 19.216234,19.216234 0 0 1 1.141,1.5448 19.216234,19.216234 0 0 0 -1.138,-1.5473 19.216234,19.216234 0 0 0 -1.289,-1.4239 19.216234,19.216234 0 0 0 -0.995,-0.9273 19.216234,19.216234 0 0 0 -1.513,-1.1842 19.216234,19.216234 0 0 0 -1.623,-1.0283 19.216234,19.216234 0 0 0 -1.716,-0.8598 19.216234,19.216234 0 0 0 -1.796,-0.6862 19.216234,19.216234 0 0 0 -1.852,-0.5017 19.216234,19.216234 0 0 0 -1.897,-0.3149 19.216234,19.216234 0 0 0 -1.916,-0.1233 z m 16.714,10.2494 a 19.216234,19.216234 0 0 1 0.811,1.7402 19.216234,19.216234 0 0 1 0.634,1.8143 19.216234,19.216234 0 0 1 0.446,1.8666 19.216234,19.216234 0 0 0 -0.445,-1.8683 19.216234,19.216234 0 0 0 -0.634,-1.8135 19.216234,19.216234 0 0 0 -0.812,-1.7393 z m 1.891,5.423 a 19.216234,19.216234 0 0 1 0.261,1.9008 19.216234,19.216234 0 0 0 -0.26,-1.9016 z m 23.993,6.4275 a 29.04253,29.04253 0 0 1 -0.186,2.8945 29.04253,29.04253 0 0 1 -0.476,2.8636 29.04253,29.04253 0 0 1 -0.757,2.7995 29.04253,29.04253 0 0 0 0.756,-2.7978 29.04253,29.04253 0 0 0 0.475,-2.8637 29.04253,29.04253 0 0 0 0.188,-2.8961 z m -1.421,8.5622 a 29.04253,29.04253 0 0 1 -1.037,2.7118 29.04253,29.04253 0 0 0 1.037,-2.7118 z"
           id="path15519"
           inkscape:connector-curvature="0" />
      </g>
      <g
         transform="translate(2.9934187,5.2384827)"
         id="g13471">
        <path
           style="opacity:1;fill:#ffffff;fill-opacity:1;stroke:none;stroke-width:0.48341161px;stroke-linecap:butt;stroke-linejoin:miter;stroke-opacity:1"
           d="m -3781.1017,119.69982 c 8.2503,-7.35291 17.9185,1.57951 6.7137,12.12757 -10.813,10.1831 -0.067,28.4097 27.5609,12.98183 -12.2722,-11.06932 -10.5036,-9.43738 -8.9515,-16.00285 3.3258,-14.0703 -17.2327,-22.78315 -25.3231,-9.10655 z"
           id="path32254"
           inkscape:connector-curvature="0"
           sodipodi:nodetypes="cscsc" />
        <path
           sodipodi:nodetypes="cscsc"
           inkscape:connector-curvature="0"
           id="path32256"
           d="m -3729.9348,114.07817 c 11.0347,0.63496 11.5503,13.7868 -3.826,13.32329 -14.8504,-0.44608 -20.012,20.16855 10.4313,28.79442 -0.8508,-16.5068 -0.8765,-14.22695 4.8625,-17.77233 12.298,-7.59737 3.924,-28.29538 -11.4678,-24.34538 z"
           style="opacity:1;fill:#ffffff;fill-opacity:1;stroke:none;stroke-width:0.48341161px;stroke-linecap:butt;stroke-linejoin:miter;stroke-opacity:1" />
        <path
           style="opacity:1;fill:#ffffff;fill-opacity:1;stroke:none;stroke-width:0.48341161px;stroke-linecap:butt;stroke-linejoin:miter;stroke-opacity:1"
           d="m -3690.375,146.43658 c 7.353,8.25167 -1.583,17.91603 -12.1278,6.71558 -10.1839,-10.81625 -28.4014,0.26808 -12.9735,27.8936 11.0708,-12.27494 9.4311,-10.83657 15.9951,-9.28542 14.0667,3.32386 22.781,-17.23318 9.1062,-25.32376 z"
           id="path32258"
           inkscape:connector-curvature="0"
           sodipodi:nodetypes="cscsc" />
        <path
           sodipodi:nodetypes="cscsc"
           inkscape:connector-curvature="0"
           id="path32260"
           d="m -3686.2447,205.45725 c -3.4703,10.49371 -16.3097,7.58706 -11.8803,-7.14522 4.2746,-14.22761 -13.2726,-25.72208 -29.4843,1.4506 16.1705,3.45086 12.9374,4.01007 14.8762,10.47031 4.1561,13.84398 26.3182,11.11228 26.4884,-4.77569 z"
           style="opacity:1;fill:#ffffff;fill-opacity:1;stroke:none;stroke-width:0.48341161px;stroke-linecap:butt;stroke-linejoin:miter;stroke-opacity:1" />
        <path
           style="opacity:1;fill:#ffffff;fill-opacity:1;stroke:none;stroke-width:0.48341161px;stroke-linecap:butt;stroke-linejoin:miter;stroke-opacity:1"
           d="m -3716.4611,235.36441 c -8.2503,7.35271 -17.9133,-1.58425 -6.7137,-12.12809 10.8181,-10.18418 -0.1392,-28.41083 -27.7671,-12.98451 12.2773,11.07299 10.7046,9.44017 9.1577,16.0043 -3.3259,14.06725 17.2327,22.78259 25.3231,9.1083 z"
           id="path32262"
           inkscape:connector-curvature="0"
           sodipodi:nodetypes="cscsc" />
        <path
           sodipodi:nodetypes="cscsc"
           inkscape:connector-curvature="0"
           id="path32264"
           d="m -3767.1072,241.50387 c -11.0295,-0.63465 -11.5452,-13.78685 3.8312,-13.32313 14.8504,0.44824 19.9036,-20.07559 -10.5397,-28.70285 0.8611,16.51314 0.9797,14.13161 -4.7542,17.67931 -12.298,7.59531 -3.924,28.29507 11.4627,24.34667 z"
           style="opacity:1;fill:#ffffff;fill-opacity:1;stroke:none;stroke-width:0.48341161px;stroke-linecap:butt;stroke-linejoin:miter;stroke-opacity:1" />
        <path
           style="opacity:1;fill:#ffffff;fill-opacity:1;stroke:none;stroke-width:0.48341161px;stroke-linecap:butt;stroke-linejoin:miter;stroke-opacity:1"
           d="m -3806.1359,207.54584 c -7.3479,-8.24785 1.5881,-17.91247 12.133,-6.71181 10.1838,10.81774 28.3962,-0.48032 12.9734,-28.10682 -11.0707,12.28376 -9.431,11.04349 -15.9951,9.49761 -14.0666,-3.32531 -22.7809,17.23291 -9.1113,25.32102 z"
           id="path32266"
           inkscape:connector-curvature="0"
           sodipodi:nodetypes="cscsc" />
        <path
           sodipodi:nodetypes="cscsc"
           inkscape:connector-curvature="0"
           id="path32268"
           d="m -3812.8083,159.55882 c 0.6394,-11.02787 13.7933,-11.54304 13.3293,3.83331 -0.4486,14.85041 19.9604,20.06682 28.587,-10.37213 -16.5108,0.8571 -14.0202,0.81146 -17.5678,-4.92316 -7.5954,-12.29799 -28.2931,-3.92304 -24.3485,11.46198 z"
           style="opacity:1;fill:#ffffff;fill-opacity:1;stroke:none;stroke-width:0.48341161px;stroke-linecap:butt;stroke-linejoin:miter;stroke-opacity:1" />
        <path
           style="opacity:1;fill:#ffffff;fill-opacity:1;stroke:none;stroke-width:3.19669127;stroke-miterlimit:4;stroke-dasharray:none;stroke-dashoffset:0;stroke-opacity:1;paint-order:normal"
           d="m -3748.405,146.68507 a 30.846165,30.846165 0 0 0 -18.1247,5.93201 30.846165,30.846165 0 0 0 -12.7208,24.91419 30.846165,30.846165 0 0 0 10.2406,22.91443 30.846165,30.846165 0 0 0 20.6049,7.93114 30.846165,30.846165 0 0 0 30.8404,-30.84557 30.846165,30.846165 0 0 0 -30.8404,-30.8462 z m -9.2763,4.49658 a 25.870977,25.870977 0 0 1 2.1966,0.10993 25.870977,25.870977 0 0 0 -2.1966,-0.10993 z m 17.1914,6.91477 a 25.870977,25.870977 0 0 1 0.9797,0.91278 25.870977,25.870977 0 0 0 -0.9797,-0.91278 z"
           id="path32245"
           inkscape:connector-curvature="0" />
        <path
           inkscape:connector-curvature="0"
           id="path13317"
           d="m -3748.4096,144.37175 a 33.163668,33.163668 0 0 1 19.4821,6.37725 33.163668,33.163668 0 0 1 13.6769,26.78581 33.163668,33.163668 0 0 1 -11.011,24.6361 v 0 a 33.163668,33.163668 0 0 1 -22.1464,8.52406 33.163668,33.163668 0 0 1 -33.1613,-33.16305 33.163668,33.163668 0 0 1 33.1613,-33.16458 z m 2.1708,6.05689 a 27.814689,27.814689 0 0 0 -2.6129,0.95368 27.814689,27.814689 0 0 1 2.6113,-0.95368 z m -2.6137,0.95368 a 27.814689,27.814689 0 0 0 -2.5046,1.20936 27.814689,27.814689 0 0 0 -2.3714,1.45323 27.814689,27.814689 0 0 0 -2.2108,1.6825 27.814689,27.814689 0 0 0 -2.0344,1.89549 27.814689,27.814689 0 0 0 -1.8336,2.088 27.814689,27.814689 0 0 0 -1.6203,2.26151 27.814689,27.814689 0 0 0 -1.3819,2.41124 27.814689,27.814689 0 0 0 -1.1355,2.53917 27.814689,27.814689 0 0 0 -0.8771,2.63755 27.814689,27.814689 0 0 0 -0.6091,2.7125 27.814689,27.814689 0 0 0 -0.3363,2.76105 27.814689,27.814689 0 0 0 -0.072,1.96747 27.814689,27.814689 0 0 0 0.1429,2.77574 27.814689,27.814689 0 0 0 0.4149,2.74926 27.814689,27.814689 0 0 0 0.6885,2.69493 27.814689,27.814689 0 0 0 0.9493,2.61106 27.814689,27.814689 0 0 0 1.2094,2.50386 27.814689,27.814689 0 0 0 1.4557,2.37016 27.814689,27.814689 0 0 0 1.6804,2.21295 27.814689,27.814689 0 0 0 1.8963,2.03223 27.814689,27.814689 0 0 1 -1.8947,-2.03223 27.814689,27.814689 0 0 1 -1.6804,-2.21295 27.814689,27.814689 0 0 1 -1.4541,-2.37016 27.814689,27.814689 0 0 1 -1.2102,-2.50386 27.814689,27.814689 0 0 1 -0.9501,-2.61106 27.814689,27.814689 0 0 1 -0.6885,-2.69493 27.814689,27.814689 0 0 1 -0.4133,-2.74926 27.814689,27.814689 0 0 1 -0.1445,-2.77574 27.814689,27.814689 0 0 1 0.072,-1.96747 27.814689,27.814689 0 0 1 0.3379,-2.76105 27.814689,27.814689 0 0 1 0.6083,-2.7125 27.814689,27.814689 0 0 1 0.8763,-2.63755 27.814689,27.814689 0 0 1 1.1371,-2.53917 27.814689,27.814689 0 0 1 1.3811,-2.41124 27.814689,27.814689 0 0 1 1.6211,-2.26151 27.814689,27.814689 0 0 1 1.8329,-2.088 27.814689,27.814689 0 0 1 2.0335,-1.89549 27.814689,27.814689 0 0 1 2.2124,-1.6825 27.814689,27.814689 0 0 1 2.3682,-1.45323 27.814689,27.814689 0 0 1 2.503,-1.20936 z m -8.545,45.57215 a 27.814689,27.814689 0 0 0 2.0865,1.83385 27.814689,27.814689 0 0 0 2.2614,1.61783 27.814689,27.814689 0 0 0 2.4083,1.38269 27.814689,27.814689 0 0 1 -2.4059,-1.38269 27.814689,27.814689 0 0 1 -2.2614,-1.61783 27.814689,27.814689 0 0 1 -2.0889,-1.83385 z m 6.7618,4.83589 a 27.814689,27.814689 0 0 0 2.5383,1.13441 27.814689,27.814689 0 0 1 -2.5375,-1.13441 z"
           style="opacity:1;fill:#75dbff;fill-opacity:1;stroke:none;stroke-width:3.43686152;stroke-miterlimit:4;stroke-dasharray:none;stroke-dashoffset:0;stroke-opacity:1;paint-order:normal" />
        <path
           inkscape:connector-curvature="0"
           id="path13319"
           d="m -3747.6336,149.75316 a 27.788391,27.788391 0 0 1 11.2739,2.59519 25.776283,25.776283 0 0 0 -12.8685,6.96236 25.776283,25.776283 0 0 0 -2.7265,3.2272 23.306392,23.306392 0 0 0 -1.0904,0.54622 23.306392,23.306392 0 0 0 -1.9666,1.24695 23.306392,23.306392 0 0 0 -1.6063,1.25729 23.306392,23.306392 0 0 1 1.6063,-1.25574 23.306392,23.306392 0 0 1 1.9677,-1.24644 23.306392,23.306392 0 0 1 1.0871,-0.54518 25.776283,25.776283 0 0 0 2.7287,33.22174 25.776283,25.776283 0 0 0 12.868,6.93188 27.788391,27.788391 0 0 1 -13.1569,2.56263 27.788391,27.788391 0 0 1 -18.1719,-8.07082 27.788391,27.788391 0 0 1 0,-39.29735 27.788391,27.788391 0 0 1 20.0554,-8.13593 z m 22.1187,11.59205 a 27.788391,27.788391 0 0 1 0,0.002 21.618817,21.618817 0 0 0 -0.5437,0.0351 18.386422,18.386422 0 0 0 0,-0.002 21.618817,21.618817 0 0 1 0.5453,-0.0351 z m 0.3405,0.46044 a 27.788391,27.788391 0 0 1 0.077,0.10387 18.386422,18.386422 0 0 0 -0.1426,-0.0785 17.055093,17.055093 0 0 1 0.066,-0.0253 z m -31.6735,3.96255 a 23.306392,23.306392 0 0 0 -1.206,1.12448 23.306392,23.306392 0 0 0 0,5.3e-4 23.306392,23.306392 0 0 1 1.206,-1.125 z m 26.1556,0.21032 v 0.002 a 15.42087,15.42087 0 0 0 -0.5289,0.0341 17.055093,17.055093 0 0 1 0,-0.002 15.42087,15.42087 0 0 1 0.5263,-0.0341 z m 0.037,0.003 a 15.42087,15.42087 0 0 1 1.5039,0.0512 15.42087,15.42087 0 0 1 1.5259,0.20877 15.42087,15.42087 0 0 1 1.139,0.2744 15.42087,15.42087 0 0 0 -1.1374,-0.27285 15.42087,15.42087 0 0 0 -1.5259,-0.20877 15.42087,15.42087 0 0 0 -1.5055,-0.0527 z m 4.1688,0.53433 a 15.42087,15.42087 0 0 1 0.3612,0.0868 15.42087,15.42087 0 0 0 -0.3612,-0.0868 z m -31.5674,0.37827 a 23.306392,23.306392 0 0 0 -1.5613,1.72806 23.306392,23.306392 0 0 0 -1.3822,1.87482 23.306392,23.306392 0 0 0 0,10e-4 23.306392,23.306392 0 0 1 1.3832,-1.87378 23.306392,23.306392 0 0 1 1.5603,-1.73013 z m -4.1323,5.60741 a 23.306392,23.306392 0 0 0 -0.9848,2.10944 23.306392,23.306392 0 0 0 -0.7665,2.20038 23.306392,23.306392 0 0 0 -0.5421,2.26653 23.306392,23.306392 0 0 0 -0.3156,2.30683 23.306392,23.306392 0 0 1 0.3161,-2.30528 23.306392,23.306392 0 0 1 0.5416,-2.26653 23.306392,23.306392 0 0 1 0.7676,-2.20038 23.306392,23.306392 0 0 1 0.9837,-2.10995 23.306392,23.306392 0 0 1 0,-0.001 z m -2.6903,11.21379 a 23.306392,23.306392 0 0 0 0.1495,2.32286 23.306392,23.306392 0 0 0 0.3818,2.29805 23.306392,23.306392 0 0 0 0.6078,2.24637 23.306392,23.306392 0 0 1 -0.6067,-2.24534 23.306392,23.306392 0 0 1 -0.3813,-2.29805 23.306392,23.306392 0 0 1 -0.1511,-2.32389 z m 1.3711,7.47293 a 23.306392,23.306392 0 0 0 0.6019,1.57406 23.306392,23.306392 0 0 1 -0.6019,-1.57406 z m 38.3847,1.97817 a 27.788391,27.788391 0 0 1 -0.079,0.10594 17.055093,17.055093 0 0 1 -0.058,-0.0269 18.386422,18.386422 0 0 0 0.1368,-0.0791 z"
           style="opacity:1;fill:#ffffff;fill-opacity:1;stroke:none;stroke-width:2.8798039;stroke-miterlimit:4;stroke-dasharray:none;stroke-dashoffset:0;stroke-opacity:1;paint-order:normal" />
      </g>
    </g>
    <g
       id="g13567"
       transform="translate(-2872.8863,-6.8878327)">
      <rect
         width="419.82169"
         height="279.88116"
         x="-1640.2327"
         y="112.49201"
         style="fill:#1977ad;fill-opacity:1;stroke-width:0.64787304"
         id="rect13622" />
      <g
         style="fill:#aed9ff;fill-opacity:1"
         transform="translate(-69.85009,338.0895)"
         id="g13630">
        <path
           style="opacity:1;vector-effect:none;fill:#aed9ff;fill-opacity:1;fill-rule:nonzero;stroke:none;stroke-width:0.20423655;stroke-linecap:butt;stroke-linejoin:miter;stroke-miterlimit:4;stroke-dasharray:none;stroke-dashoffset:0;stroke-opacity:1;paint-order:markers stroke fill"
           d="m -1570.5685,-132.24187 v 11.66959 11.66959 h 420.0075 v -11.66959 -11.66959 z"
           id="path13624"
           inkscape:connector-curvature="0" />
        <path
           style="opacity:1;vector-effect:none;fill:#aed9ff;fill-opacity:1;fill-rule:nonzero;stroke:none;stroke-width:0.20423655;stroke-linecap:butt;stroke-linejoin:miter;stroke-miterlimit:4;stroke-dasharray:none;stroke-dashoffset:0;stroke-opacity:1;paint-order:markers stroke fill"
           d="m -1570.5682,-62.225173 v 11.669588 11.669588 h 420.0074 v -11.669588 -11.669588 z"
           id="path13626"
           inkscape:connector-curvature="0" />
        <path
           style="opacity:1;vector-effect:none;fill:#aed9ff;fill-opacity:1;fill-rule:nonzero;stroke:none;stroke-width:0.20423655;stroke-linecap:butt;stroke-linejoin:miter;stroke-miterlimit:4;stroke-dasharray:none;stroke-dashoffset:0;stroke-opacity:1;paint-order:markers stroke fill"
           d="m -1570.5682,-97.233354 v 11.669588 11.669004 h 420.0074 v -11.669004 -11.669588 z"
           id="path13628"
           inkscape:connector-curvature="0" />
      </g>
      <path
         sodipodi:nodetypes="cccc"
         inkscape:connector-curvature="0"
         id="path13632"
         d="m -1290.4122,159.16981 -140.0024,186.71127 -140.0026,-186.71127 z"
         style="fill:#1977ad;fill-opacity:1;stroke:none;stroke-width:0.26458332px;stroke-linecap:butt;stroke-linejoin:miter;stroke-opacity:1" />
      <g
         id="g13364">
        <path
           style="fill:#ffffff;fill-opacity:1;stroke:none;stroke-width:0.17638873px;stroke-linecap:butt;stroke-linejoin:miter;stroke-opacity:1"
           d="m -1477.0816,174.7288 -23.3343,31.11883 70.0015,93.35582 70.0008,-93.35582 -23.3336,-31.11883 z"
           id="path1065"
           inkscape:connector-curvature="0" />
        <path
           sodipodi:type="inkscape:offset"
           inkscape:radius="-11.669615"
           inkscape:original="M -1477.082 174.72852 L -1500.416 205.84766 L -1430.4141 299.20312 L -1360.4141 205.84766 L -1383.748 174.72852 L -1477.082 174.72852 z "
           xlink:href="#path1065"
           style="fill:#1977ad;fill-opacity:1;stroke:none;stroke-width:0.17638873px;stroke-linecap:butt;stroke-linejoin:miter;stroke-opacity:1"
           id="path1107"
           inkscape:href="#path1065"
           d="m -1471.248,186.39844 -14.5821,19.44922 55.416,73.90429 55.4141,-73.90429 -14.584,-19.44922 z"
           transform="matrix(0.42098237,0,0,1,-828.23553,0)" />
        <path
           inkscape:connector-curvature="0"
           id="path1066"
           d="m -1447.605,180.56362 -8.5954,-11.46297 25.7858,-34.38864 25.7855,34.38864 -8.5951,11.46297 z"
           style="fill:#1977ad;fill-opacity:1;stroke:none;stroke-width:0.06497473px;stroke-linecap:butt;stroke-linejoin:miter;stroke-opacity:1" />
        <path
           style="fill:#ffffff;fill-opacity:1;stroke:none;stroke-width:0.24557379px;stroke-linecap:butt;stroke-linejoin:miter;stroke-opacity:1"
           d="m -5393.9238,530.81055 -20.1153,26.82812 44.8555,59.82031 20.1152,-26.82812 z m -42.543,18.58007 -51.041,68.06836 32.4883,43.32422 h 97.457 l 32.4844,-43.32422 -13.9317,-18.58007 -30.1738,40.24218 z"
           transform="scale(0.26458333)"
           id="path13355"
           inkscape:connector-curvature="0" />
      </g>
    </g>
    <g
       id="g13619"
       transform="translate(-3020.4731,-352.48167)">
      <rect
         id="rect13948"
         style="fill:#1977ad;fill-opacity:1;stroke-width:0.64787298"
         y="458.08585"
         x="-592.7226"
         height="279.88116"
         width="419.82169" />
      <path
         sodipodi:nodetypes="cccc"
         inkscape:connector-curvature="0"
         id="rect13952"
         d="m -592.72261,458.08585 104.95546,139.94058 -104.95546,139.94058 z"
         style="fill:#aed9ff;fill-opacity:1;stroke-width:0.51379883" />
      <path
         style="fill:#aed9ff;fill-opacity:1;stroke-width:0.51379883"
         d="m -172.90092,458.08585 -104.95546,139.94058 104.95546,139.94058 z"
         id="path13989"
         inkscape:connector-curvature="0"
         sodipodi:nodetypes="cccc" />
      <g
         transform="matrix(1.260492,0,0,1.260492,1420.2147,318.20293)"
         id="g13374">
        <path
           inkscape:connector-curvature="0"
           id="path13366"
           d="m -1477.0816,174.7288 -23.3343,31.11883 70.0015,93.35582 70.0008,-93.35582 -23.3336,-31.11883 z"
           style="fill:#ffffff;fill-opacity:1;stroke:none;stroke-width:0.17638873px;stroke-linecap:butt;stroke-linejoin:miter;stroke-opacity:1" />
        <path
           transform="matrix(0.42098237,0,0,1,-828.23553,0)"
           d="m -1471.248,186.39844 -14.5821,19.44922 55.416,73.90429 55.4141,-73.90429 -14.584,-19.44922 z"
           inkscape:href="#path1065"
           id="path13368"
           style="fill:#1977ad;fill-opacity:1;stroke:none;stroke-width:0.17638873px;stroke-linecap:butt;stroke-linejoin:miter;stroke-opacity:1"
           xlink:href="#path1065"
           inkscape:original="M -1477.082 174.72852 L -1500.416 205.84766 L -1430.4141 299.20312 L -1360.4141 205.84766 L -1383.748 174.72852 L -1477.082 174.72852 z "
           inkscape:radius="-11.669615"
           sodipodi:type="inkscape:offset" />
        <path
           style="fill:#1977ad;fill-opacity:1;stroke:none;stroke-width:0.06497473px;stroke-linecap:butt;stroke-linejoin:miter;stroke-opacity:1"
           d="m -1447.605,180.56362 -8.5954,-11.46297 25.7858,-34.38864 25.7855,34.38864 -8.5951,11.46297 z"
           id="path13370"
           inkscape:connector-curvature="0" />
        <path
           inkscape:connector-curvature="0"
           id="path13372"
           transform="scale(0.26458333)"
           d="m -5393.9238,530.81055 -20.1153,26.82812 44.8555,59.82031 20.1152,-26.82812 z m -42.543,18.58007 -51.041,68.06836 32.4883,43.32422 h 97.457 l 32.4844,-43.32422 -13.9317,-18.58007 -30.1738,40.24218 z"
           style="fill:#ffffff;fill-opacity:1;stroke:none;stroke-width:0.24557379px;stroke-linecap:butt;stroke-linejoin:miter;stroke-opacity:1" />
      </g>
    </g>
    <g
       id="g13592"
       transform="translate(-3468.6045,302.99349)">
      <rect
         id="rect1037"
         style="fill:#1977ad;fill-opacity:1;stroke-width:0.64787304"
         y="112.49201"
         x="-594.59924"
         height="279.88116"
         width="419.82169" />
      <rect
         y="299.20349"
         x="-594.59924"
         height="93.16967"
         width="419.82172"
         id="rect1057"
         style="opacity:1;vector-effect:none;fill:#aed9ff;fill-opacity:1;fill-rule:nonzero;stroke:none;stroke-width:2;stroke-linecap:butt;stroke-linejoin:miter;stroke-miterlimit:4;stroke-dasharray:none;stroke-dashoffset:0;stroke-opacity:1;paint-order:markers stroke fill" />
      <g
         id="g13395"
         transform="matrix(1.03371,0,0,1.03371,980.61301,-20.840256)">
        <path
           style="fill:#e1cf3d;fill-opacity:1;stroke:none;stroke-width:0.17638873px;stroke-linecap:butt;stroke-linejoin:miter;stroke-opacity:1"
           d="m -1477.0816,174.7288 -23.3343,31.11883 70.0015,93.35582 70.0008,-93.35582 -23.3336,-31.11883 z"
           id="path13387"
           inkscape:connector-curvature="0" />
        <path
           sodipodi:type="inkscape:offset"
           inkscape:radius="-11.669615"
           inkscape:original="M -1477.082 174.72852 L -1500.416 205.84766 L -1430.4141 299.20312 L -1360.4141 205.84766 L -1383.748 174.72852 L -1477.082 174.72852 z "
           xlink:href="#path1065"
           style="fill:#1977ad;fill-opacity:1;stroke:none;stroke-width:0.17638873px;stroke-linecap:butt;stroke-linejoin:miter;stroke-opacity:1"
           id="path13389"
           inkscape:href="#path1065"
           d="m -1471.248,186.39844 -14.5821,19.44922 55.416,73.90429 55.4141,-73.90429 -14.584,-19.44922 z"
           transform="matrix(0.42098237,0,0,1,-828.23553,0)" />
        <path
           inkscape:connector-curvature="0"
           id="path13391"
           d="m -1447.605,180.56362 -8.5954,-11.46297 25.7858,-34.38864 25.7855,34.38864 -8.5951,11.46297 z"
           style="fill:#1977ad;fill-opacity:1;stroke:none;stroke-width:0.06497473px;stroke-linecap:butt;stroke-linejoin:miter;stroke-opacity:1" />
        <path
           style="fill:#e1cf3d;fill-opacity:1;stroke:none;stroke-width:0.24557379px;stroke-linecap:butt;stroke-linejoin:miter;stroke-opacity:1"
           d="m -5393.9238,530.81055 -20.1153,26.82812 44.8555,59.82031 20.1152,-26.82812 z m -42.543,18.58007 -51.041,68.06836 32.4883,43.32422 h 97.457 l 32.4844,-43.32422 -13.9317,-18.58007 -30.1738,40.24218 z"
           transform="scale(0.26458333)"
           id="path13393"
           inkscape:connector-curvature="0" />
      </g>
    </g>
    <g
       id="g13638"
       transform="translate(-3092.8165,-352.48169)">
      <rect
         width="419.82169"
         height="279.88116"
         x="-70.371033"
         y="458.08585"
         style="fill:#aed9ff;fill-opacity:1;stroke-width:0.64787298"
         id="rect998" />
      <rect
         y="716.43774"
         x="-70.370422"
         height="21.529312"
         width="419.82108"
         id="rect972"
         style="opacity:1;vector-effect:none;fill:#1977ad;fill-opacity:1;fill-rule:nonzero;stroke:none;stroke-width:18.34628296;stroke-linecap:butt;stroke-linejoin:miter;stroke-miterlimit:4;stroke-dasharray:none;stroke-dashoffset:0;stroke-opacity:1;paint-order:markers stroke fill" />
      <rect
         style="opacity:1;vector-effect:none;fill:#1977ad;fill-opacity:1;fill-rule:nonzero;stroke:none;stroke-width:18.34628296;stroke-linecap:butt;stroke-linejoin:miter;stroke-miterlimit:4;stroke-dasharray:none;stroke-dashoffset:0;stroke-opacity:1;paint-order:markers stroke fill"
         id="rect976"
         width="419.82108"
         height="21.529312"
         x="-70.371033"
         y="673.37915" />
      <rect
         y="630.32037"
         x="-70.371033"
         height="21.529312"
         width="419.82108"
         id="rect980"
         style="opacity:1;vector-effect:none;fill:#1977ad;fill-opacity:1;fill-rule:nonzero;stroke:none;stroke-width:18.34628296;stroke-linecap:butt;stroke-linejoin:miter;stroke-miterlimit:4;stroke-dasharray:none;stroke-dashoffset:0;stroke-opacity:1;paint-order:markers stroke fill" />
      <rect
         style="opacity:1;vector-effect:none;fill:#1977ad;fill-opacity:1;fill-rule:nonzero;stroke:none;stroke-width:18.34628296;stroke-linecap:butt;stroke-linejoin:miter;stroke-miterlimit:4;stroke-dasharray:none;stroke-dashoffset:0;stroke-opacity:1;paint-order:markers stroke fill"
         id="rect984"
         width="419.82108"
         height="21.529312"
         x="-70.371033"
         y="587.26178" />
      <rect
         y="544.20306"
         x="-70.371033"
         height="21.529312"
         width="419.82108"
         id="rect988"
         style="opacity:1;vector-effect:none;fill:#1977ad;fill-opacity:1;fill-rule:nonzero;stroke:none;stroke-width:18.34628296;stroke-linecap:butt;stroke-linejoin:miter;stroke-miterlimit:4;stroke-dasharray:none;stroke-dashoffset:0;stroke-opacity:1;paint-order:markers stroke fill" />
      <rect
         style="opacity:1;vector-effect:none;fill:#1977ad;fill-opacity:1;fill-rule:nonzero;stroke:none;stroke-width:18.34628296;stroke-linecap:butt;stroke-linejoin:miter;stroke-miterlimit:4;stroke-dasharray:none;stroke-dashoffset:0;stroke-opacity:1;paint-order:markers stroke fill"
         id="rect992"
         width="419.82108"
         height="21.529312"
         x="-70.371033"
         y="501.1445" />
      <rect
         y="458.08585"
         x="-70.371033"
         height="21.529312"
         width="419.82108"
         id="rect996"
         style="opacity:1;vector-effect:none;fill:#1977ad;fill-opacity:1;fill-rule:nonzero;stroke:none;stroke-width:18.34628296;stroke-linecap:butt;stroke-linejoin:miter;stroke-miterlimit:4;stroke-dasharray:none;stroke-dashoffset:0;stroke-opacity:1;paint-order:markers stroke fill" />
      <rect
         y="458.08585"
         x="-70.371033"
         height="150.7052"
         width="203.92108"
         id="rect1011"
         style="opacity:1;vector-effect:none;fill:#1977ad;fill-opacity:1;fill-rule:nonzero;stroke:none;stroke-width:3.96875;stroke-linecap:butt;stroke-linejoin:miter;stroke-miterlimit:4;stroke-dasharray:none;stroke-dashoffset:0;stroke-opacity:1;paint-order:markers stroke fill" />
      <g
         id="g13405"
         transform="matrix(0.79010536,0,0,0.79010536,1189.4479,359.37313)">
        <path
           style="fill:#ffffff;fill-opacity:1;stroke:none;stroke-width:0.17638873px;stroke-linecap:butt;stroke-linejoin:miter;stroke-opacity:1"
           d="m -1477.0816,174.7288 -23.3343,31.11883 70.0015,93.35582 70.0008,-93.35582 -23.3336,-31.11883 z"
           id="path13397"
           inkscape:connector-curvature="0" />
        <path
           sodipodi:type="inkscape:offset"
           inkscape:radius="-11.669615"
           inkscape:original="M -1477.082 174.72852 L -1500.416 205.84766 L -1430.4141 299.20312 L -1360.4141 205.84766 L -1383.748 174.72852 L -1477.082 174.72852 z "
           xlink:href="#path1065"
           style="fill:#1977ad;fill-opacity:1;stroke:none;stroke-width:0.17638873px;stroke-linecap:butt;stroke-linejoin:miter;stroke-opacity:1"
           id="path13399"
           inkscape:href="#path1065"
           d="m -1471.248,186.39844 -14.5821,19.44922 55.416,73.90429 55.4141,-73.90429 -14.584,-19.44922 z"
           transform="matrix(0.42098237,0,0,1,-828.23553,0)" />
        <path
           inkscape:connector-curvature="0"
           id="path13401"
           d="m -1447.605,180.56362 -8.5954,-11.46297 25.7858,-34.38864 25.7855,34.38864 -8.5951,11.46297 z"
           style="fill:#1977ad;fill-opacity:1;stroke:none;stroke-width:0.06497473px;stroke-linecap:butt;stroke-linejoin:miter;stroke-opacity:1" />
        <path
           style="fill:#ffffff;fill-opacity:1;stroke:none;stroke-width:0.24557379px;stroke-linecap:butt;stroke-linejoin:miter;stroke-opacity:1"
           d="m -5393.9238,530.81055 -20.1153,26.82812 44.8555,59.82031 20.1152,-26.82812 z m -42.543,18.58007 -51.041,68.06836 32.4883,43.32422 h 97.457 l 32.4844,-43.32422 -13.9317,-18.58007 -30.1738,40.24218 z"
           transform="scale(0.26458333)"
           id="path13403"
           inkscape:connector-curvature="0" />
      </g>
      <path
         transform="matrix(0.30884903,0.95111108,0.95111108,-0.30884903,-520.92567,557.46866)"
         inkscape:transform-center-y="-1.768342"
         inkscape:transform-center-x="-0.0010113193"
         d="m 88.370835,506.02839 -4.184288,-12.76921 -13.437259,-0.0336 10.851227,-7.9254 -4.120396,-12.78997 10.890715,7.87105 10.890715,-7.87105 -4.120396,12.78997 10.851227,7.9254 -13.437258,0.0336 z"
         inkscape:randomized="0"
         inkscape:rounded="0"
         inkscape:flatsided="false"
         sodipodi:arg2="2.1991148"
         sodipodi:arg1="1.5707963"
         sodipodi:r2="7.1187348"
         sodipodi:r1="18.528391"
         sodipodi:cy="487.5"
         sodipodi:cx="88.370834"
         sodipodi:sides="5"
         id="path13407"
         style="opacity:1;vector-effect:none;fill:#ffffff;fill-opacity:1;fill-rule:nonzero;stroke:none;stroke-width:3.96875;stroke-linecap:butt;stroke-linejoin:miter;stroke-miterlimit:4;stroke-dasharray:none;stroke-dashoffset:0;stroke-opacity:1;paint-order:markers stroke fill"
         sodipodi:type="star" />
      <path
         sodipodi:type="star"
         style="opacity:1;vector-effect:none;fill:#ffffff;fill-opacity:1;fill-rule:nonzero;stroke:none;stroke-width:3.96875;stroke-linecap:butt;stroke-linejoin:miter;stroke-miterlimit:4;stroke-dasharray:none;stroke-dashoffset:0;stroke-opacity:1;paint-order:markers stroke fill"
         id="path13411"
         sodipodi:sides="5"
         sodipodi:cx="88.370834"
         sodipodi:cy="487.5"
         sodipodi:r1="18.528391"
         sodipodi:r2="7.1187348"
         sodipodi:arg1="1.5707963"
         sodipodi:arg2="2.1991148"
         inkscape:flatsided="false"
         inkscape:rounded="0"
         inkscape:randomized="0"
         d="m 88.370835,506.02839 -4.184288,-12.76921 -13.437259,-0.0336 10.851227,-7.9254 -4.120396,-12.78997 10.890715,7.87105 10.890715,-7.87105 -4.120396,12.78997 10.851227,7.9254 -13.437258,0.0336 z"
         inkscape:transform-center-x="-0.0010113193"
         inkscape:transform-center-y="-1.768342"
         transform="matrix(0.30884903,0.95111108,0.95111108,-0.30884903,-520.92567,600.5272)" />
      <path
         transform="matrix(0.30884903,0.95111108,0.95111108,-0.30884903,-520.92505,643.58594)"
         inkscape:transform-center-y="-1.768342"
         inkscape:transform-center-x="-0.0010113193"
         d="m 88.370835,506.02839 -4.184288,-12.76921 -13.437259,-0.0336 10.851227,-7.9254 -4.120396,-12.78997 10.890715,7.87105 10.890715,-7.87105 -4.120396,12.78997 10.851227,7.9254 -13.437258,0.0336 z"
         inkscape:randomized="0"
         inkscape:rounded="0"
         inkscape:flatsided="false"
         sodipodi:arg2="2.1991148"
         sodipodi:arg1="1.5707963"
         sodipodi:r2="7.1187348"
         sodipodi:r1="18.528391"
         sodipodi:cy="487.5"
         sodipodi:cx="88.370834"
         sodipodi:sides="5"
         id="path13413"
         style="opacity:1;vector-effect:none;fill:#ffffff;fill-opacity:1;fill-rule:nonzero;stroke:none;stroke-width:3.96875;stroke-linecap:butt;stroke-linejoin:miter;stroke-miterlimit:4;stroke-dasharray:none;stroke-dashoffset:0;stroke-opacity:1;paint-order:markers stroke fill"
         sodipodi:type="star" />
    </g>
  </g>
</svg>
